<svg xmlns="http://www.w3.org/2000/svg" width="1091" height="835" viewBox="0 0 1091 835"><path fill="#d9d9d9" d="M0 0h1091.002v835H0z"/><defs><linearGradient id="a" x1="410.421" x2="420.721" y1="256.234" y2="124.681" gradientUnits="userSpaceOnUse"><stop offset="0" stop-color="#363537"/><stop offset="1" stop-color="#666668"/></linearGradient></defs><path fill="url(#a)" d="M338.417 134.33c4.298-.262 8.998-1.003 13.376-1.381 25.806-2.231 51.553-5.463 77.357-7.67 3.772-.322 8.525.3 12.255.742 9.692-.992 16.446 3.288 24.747 7.703 1.885 1.002 4.238 2.682 5.816 4.093 4.284 3.752 8.446 7.088 11.806 11.754 4.85 5.381 10.426 21.106 10.76 28.568.594 2.564.727 5.624.927 8.286 2.288 30.446-20.973 55.895-49.851 62.145-10.621 2.299-22.491 2.629-33.328 3.755-9.456 1.011-18.431 2.305-27.882 2.971-1.163.239-1.486.257-2.677.251-.627.374-.296.279-1.029.294-1.079-1.477-.957-5.541-1.014-7.5l-.221-1.627c-.262-2.811-.932-8.087-1.538-10.715l-.133-.526c-.959-8.109-2.367-20.447-2.675-28.511l-.111-.394a1000 1000 0 0 1-2.154-18.427c-.615-5.966-1.142-12.427-2.168-18.318 3.367-.986 17.075-2.094 20.857-2.24 4.974-1.136 7.109-.072 11.82-1.662.972-.243 1.383-.435 2.341-.266 2.235 1.797.262 12.467.28 15.678.112 1.351.17 2.322.476 3.649 1.398 2.259 2.081 10.926 3.013 14.646l.027-.134c.616 3.122 1.074 5.747 1.468 9.011.423 3.504.552 7.606 1.19 11.061.077.419.932 1.033 1.294 1.293 1.679.32 1.418.364 2.638 1.331 15.386-2.294 29.541-.102 40.795-13.798 11.712-14.255 9.502-34.808-4.56-46.585-8.711-7.295-19.159-6.998-29.741-5.977-7.471.991-14.619 1.891-22.139 2.557-6.355.562-12.599 1.58-18.999 2.12-3.443.386-10.251 1.984-12.831.65-1.946-1.894-5.173-3.497-7.272-6.142l-2.083-1.747a427 427 0 0 0-3.848-3.644l-.91-1.036c-1.083-.795-2.728-2.31-3.793-3.229-4.233-3.879-8.043-6.727-12.286-11.029" transform="scale(1.83054 1.83114)"/><defs><linearGradient id="b" x1="395.752" x2="394.841" y1="158.46" y2="149.812" gradientUnits="userSpaceOnUse"><stop offset="0" stop-color="#48494b"/><stop offset="1" stop-color="#6b6a6a"/></linearGradient></defs><path fill="url(#b)" d="m413.608 135.381.58-.391.127-.933c.309.469.011.601.221 1.179.072 1.346.176 2.574.074 3.922-.333 1.067-.19 1.23.169 2.357l.547.453-.81.963c1.012-.327 1.082-.558 1.826-.256l.146.442c-1.201 3.844-.073 6.66 4.351 5.743.572.193.978.281 1.451.66 1.369-1.472 1.483-2.623 1.919-4.559.712 1.11.011 2.071.468 3.74-1.35 1.628-3.432 3.566-4.466 4.99l1.159.557c-.417.73-.352.362-.331 1.108 1.078.068.768-.099 1.539.474-7.471.991-14.619 1.891-22.139 2.557-6.355.562-12.599 1.58-18.999 2.12-3.443.386-10.251 1.984-12.831.65-1.946-1.894-5.173-3.497-7.272-6.142l-2.083-1.747a427 427 0 0 0-3.848-3.644c1.491-.805 6.505-.981 8.444-1.119 13.9-1.986 28.34-2.429 42.045-5.281 5.689-.303 8.336-1.865 7.713-7.843" transform="scale(1.83054 1.83114)"/><defs><linearGradient id="c" x1="387.448" x2="392.392" y1="140.111" y2="153.128" gradientUnits="userSpaceOnUse"><stop offset="0" stop-color="#314045"/><stop offset="1" stop-color="#535c5d"/></linearGradient></defs><path fill="url(#c)" d="m413.608 135.381.58-.391.127-.933c.309.469.011.601.221 1.179.072 1.346.176 2.574.074 3.922-.333 1.067-.19 1.23.169 2.357l.547.453-.81.963.099 3.049c-1.379.178-3.661.404-4.954.673 1.473.122 2.749.166 4.226.198-1.015.262-1.413.289-2.464.358l-.17.476c-1.491.146-4.898.393-6.196.752-9.618 1.048-21.061 2.134-30.574 3.685-.676-.091-.658-.054-1.233-.402.375-.628.828-.601 1.708-.935-1.218-.619-2.613-.207-4.055-.002-.92-1.081-1.344-1.22-2.691-1.517-1.497-.217-2.476.072-4.111-.241l-.251-.52c13.9-1.986 28.34-2.429 42.045-5.281 5.689-.303 8.336-1.865 7.713-7.843" transform="scale(1.83054 1.83114)"/><path fill="#56aaa7" d="M686.376 276.108c4.942-.228 14.212-2.06 19.418-2.673 14.068-1.663 30.037-4.393 44.107-4.893 2.696.224 5.032.304 7.736.363-1.858.48-2.587.529-4.51.655l-.312.872c-2.73.267-8.966.72-11.342 1.377-17.606 1.919-38.553 3.908-55.967 6.748-1.237-.167-1.204-.1-2.257-.736.686-1.15 1.516-1.101 3.127-1.713"/><path fill="#434f50" d="M650.585 273.982c2.73-1.474 11.908-1.796 15.457-2.049l.46.953c2.992.573 4.784.044 7.525.44 2.465.545 3.242.8 4.926 2.779 2.64-.376 5.193-1.13 7.423.003-1.611.612-2.44.563-3.127 1.713 1.053.637 1.02.569 2.257.736-1.942.441-2.69.373-4.714.377l2.137 3.137 3.926 3.904c-.45.34-1.823 1.437-2.24 1.62-1.99 1.137-3.279.667-5.415.302.437 1.916 1.755 1.493 2.896 3.04-4.304-.582-4.816.515-7.343 4.164-3.562-3.468-9.469-6.403-13.311-11.247l-3.813-3.199a782 782 0 0 0-7.044-6.673"/><path fill="#3b4142" d="M650.585 273.982c2.73-1.474 11.908-1.796 15.457-2.049l.46.953c2.992.573 4.784.044 7.525.44 2.465.545 3.242.8 4.926 2.779 2.64-.376 5.193-1.13 7.423.003-1.611.612-2.44.563-3.127 1.713 1.053.637 1.02.569 2.257.736-1.942.441-2.69.373-4.714.377l-1.036-.767c-6.35.481-12.759-.112-19.089.73-1.451.194-2.213.976-3.038 1.758a782 782 0 0 0-7.044-6.673"/><path fill="#434f50" d="M674.027 273.327c2.465.544 3.242.798 4.926 2.778-2.775.776-8.249-.136-11.273-.463 2.352-.998 3.918-1.55 6.347-2.315"/><defs><linearGradient id="d" x1="365.51" x2="365.521" y1="153.685" y2="152.156" gradientUnits="userSpaceOnUse"><stop offset="0" stop-color="#425b64"/><stop offset="1" stop-color="#668589"/></linearGradient></defs><path fill="url(#d)" d="M359.254 153.268c.451-.427.867-.854 1.66-.96 3.458-.46 6.959-.136 10.428-.399l.566.419 1.167 1.713c-1.115.091-.845-.1-1.504.529-2.237-1.527-8.208-1.289-10.961-1.022l.036.295.785.532c-.007.348.046.373-.094.64z" transform="scale(1.83054 1.83114)"/><path fill="#448788" d="M680.176 283.04c1.206-1.152.712-.803 2.753-.97l3.926 3.905c-.45.34-1.823 1.437-2.24 1.62-2.72-4.482-13.845 1.749-15.888-2.77 1.985-2.088 8.15-.909 11.449-1.786"/><path fill="#3b4142" d="m741.473 271.809 2.085.276c-4.185 2.553-16.8 2.16-21.88 3.212-11.2 2.32-25.392 2.214-35.93 6.433 2.418 3.527 6.542 6.568 3.776 10.223-5.12 3.055-9.182-3.173-11.897 1.61l.196.89c4.864 2.261 18.94-3.5 20.418-.542-6.302.707-18.765 3.633-23.488 1.19 2.527-3.65 3.04-4.746 7.343-4.164-1.14-1.547-2.459-1.124-2.896-3.04 2.136.365 3.425.835 5.415-.302.417-.183 1.79-1.28 2.24-1.62l-3.926-3.904-2.137-3.137c2.023-.004 2.772.064 4.714-.377 17.414-2.84 38.36-4.829 55.967-6.748"/><path fill="#448788" d="M686.855 285.975c1.688 2.036 1.618 1.38 2.047 3.677-1.564 2.473-3.617 2.488-6.39 1.794l-.416-.509c-1.14-1.547-2.459-1.124-2.896-3.04 2.136.365 3.425.835 5.415-.302.417-.183 1.79-1.28 2.24-1.62"/><path fill="#3ebaba" d="M758.788 261.727c1.853-.6 1.98-1.022 3.343-.47l.267.81c-2.199 7.04-.134 12.196 7.965 10.517 1.047.353 1.79.514 2.656 1.208-2.772 1.875-4.103 2.333-7.48 2.159-4.14-1.71-4.227-1.945-6.207-5.766l-6.517.247.311-.872c1.924-.126 2.653-.176 4.51-.655-2.703-.059-5.039-.14-7.735-.363 2.367-.492 6.544-.906 9.068-1.232z"/><path fill="#243a3f" d="M776.531 265.444c1.304 2.032.02 3.792.857 6.848-2.471 2.981-6.282 6.53-8.175 9.138-.124-1.256.807-2.626 1.433-3.82l-.655-.753c-1.62.374-4.263 3.835-5.54 5.258l-.525-.21c2.627-2.737 2.633-2.508 1.613-5.954 3.377.174 4.708-.284 7.48-2.159 2.506-2.695 2.714-4.803 3.512-8.348"/><defs><linearGradient id="e" x1="380.847" x2="382.512" y1="203.384" y2="167.415" gradientUnits="userSpaceOnUse"><stop offset="0" stop-color="#344343"/><stop offset="1" stop-color="#626768"/></linearGradient></defs><path fill="url(#e)" d="M370.68 169.823c3.367-.986 17.075-2.094 20.857-2.24 1.107.248 1.553.222 2.28 1.007l-.169.469c-1.292.591-3.11.935-3.462 1.86-2.387 2.3-2.74 2.594-3.952 5.568.877.405 1.798.994 2.698.822l.228-.598c.562 1.429 1.135 2.997 2.26 4.087l1.284 1.944.271.032c1.339 3.012 2.038 4.426 1.298 7.818l-.434.843c-.844.914-1.398 1.511-2.361 2.334l-.48.316-1.395.911-.956-.076-.857.909c-.645 1.006-1.129 1.447-1.953 2.278-.665.104-1.172.139-1.8.369l-1.134-.798-.368.779c-.861 1.096-3.818 5.063-4.568 5.826-.24-.297-.603-.582-.897-.84l-1.281 1.665c-.633.622-.601.585-.787 1.46a1000 1000 0 0 1-2.154-18.427c-.615-5.966-1.142-12.427-2.168-18.318" transform="scale(1.83054 1.83114)"/><path fill="#494c4d" d="M712.373 323.583c1.029 2.616 2.078 5.488 4.137 7.483l2.35 3.56.496.059c2.451 5.515 3.731 8.104 2.376 14.316l-.794 1.543c-1.545 1.674-2.56 2.767-4.322 4.274l-.879.579-2.553 1.668-1.75-.14-1.569 1.665c-1.18 1.842-2.067 2.65-3.575 4.172-1.217.19-2.145.254-3.295.675l-2.076-1.46c-2.052-3.21-2.354-4.502-2.636-8.104l-.262-1.426c.002-1.824.06-1.883.943-3.529 1.931-2.829 3.083-5.682 3.43-9.088l-.938-.56.488-.099c1.296-.11 1.805-.059 2.973-.676 1.366-2.186.359-6.044 1.15-9.294.36-1.497.466-3.912.95-6.029 1.605.742 3.291 1.82 4.939 1.506z"/><path fill="#2f7f7d" d="M699.028 353.802c2.33-1.577 5.71-2.41 8.44-2.94l-.076 6.066 2.473 1.662c-1.18 1.842-2.067 2.65-3.575 4.172-1.217.19-2.145.254-3.295.675l-2.076-1.46c-2.052-3.21-2.354-4.502-2.636-8.104z"/><path fill="#3f6e84" d="M699.028 353.802c2.33-1.577 5.71-2.41 8.44-2.94l-.076 6.066-.3.086c-1.315-3.404-4.567-2.798-6.118.09.057-1.47.082-1.381-.4-2.764z"/><path fill="#243a3f" d="M700.974 357.103c1.55-2.887 4.803-3.493 6.118-.09-1.144 1.978-.584 1.62-2.349 2.649-1.982-.403-2.32-.775-3.769-2.559"/><path fill="#686868" d="M698.964 348.918c2.91-2.281 10.954-5.2 13.991-2.882l-.11 1.23c-.83 2.848-1.704 2.54-4.605 2.802l-.771.793c-2.731.531-6.11 1.364-8.44 2.94l-.746.072-.262-1.426c.002-1.824.06-1.883.943-3.529"/><path fill="#3b4142" d="M712.845 347.267c-.83 2.847-1.704 2.54-4.605 2.801l-.771.793c-2.731.531-6.11 1.364-8.44 2.94l-.746.072-.262-1.426c6.59-4.073 6.903-4.33 14.824-5.18"/><path fill="#686868" d="m718.86 334.626.496.059c2.451 5.515 3.731 8.104 2.376 14.316-1.561-2.441-1.305-2.505-3.529-3.322l.026-.652c-2.567-1.542-4.342-5.515-3.022-8.372 1.51-1.287 1.766-1.384 3.653-2.029"/><path fill="#686868" d="M718.203 345.679c2.224.817 1.968.88 3.53 3.322l-.795 1.543c-1.545 1.674-2.56 2.767-4.322 4.274l-.879.579c-.355-1.34-3.077-3.781-4.204-4.928 2.218-1.131 4.338-1.928 5.85-3.829z"/><path fill="#787b79" d="M718.203 345.679c2.224.817 1.968.88 3.53 3.322l-.795 1.543-1.763-.441c-1.569-1.514-1.089-1.093-1.792-3.463z"/><path fill="#449694" d="M708.24 350.068c2.588.661 1.997.105 3.38 1.853.3 2.095.087 2.96-.186 5.005l-1.569 1.664-2.473-1.662.077-6.067z"/><path fill="#34393b" d="M690.22 350.916q.51-1.274 1.11-2.51c2.256-4.556 5.33-7.51 10.126-9.136l.939.56c-.348 3.406-1.5 6.26-3.43 9.088-.883 1.646-.942 1.705-.944 3.529l.262 1.426c.282 3.602.584 4.893 2.636 8.103l-.673 1.427c-1.577 2.006-6.99 9.27-8.362 10.668-.44-.544-1.104-1.066-1.642-1.538l4.168-6.453c-3.065-4.386-3.963-9.923-4.19-15.164"/><path fill="#449694" d="m689.799 351.881.42-.965c.228 5.24 1.126 10.778 4.19 15.164l-4.167 6.453-2.345 3.048-.646-1.261c1.242-6.764.915-11.793.424-18.519l.24-4.037z"/><path fill="#56aaa7" d="m687.675 355.801.24-4.037 1.884.117c.05 1.937.267 3.827-.335 5.629l-.755.02z"/><path fill="#3ebaba" d="M701.452 334.703c2.072.775 1.968.388 3.212 1.853-.399 1.943-.915 1.851-2.72 2.615l-.488.099c-4.796 1.626-7.87 4.58-10.125 9.136q-.6 1.236-1.111 2.51l-.421.965-1.884-.117c1.14-8.141 7.481-12.278 13.537-17.06"/><path fill="#449694" d="M701.452 334.703c.994-2.785 1.188-7.888 3.064-9.654 1.31 1.476 1.091 2.05 1.55 4.152-.79 3.25.217 7.108-1.149 9.294-1.168.617-1.677.566-2.973.676 1.805-.764 2.321-.672 2.72-2.615-1.244-1.465-1.14-1.078-3.212-1.853"/><path fill="#494c4d" d="M748.85 242.003c4.776-.082 6.82 1.253 8.276 5.899 1.14 10.946-3.705 13.806-14.119 14.361-25.088 5.223-51.52 6.034-76.965 9.67-3.55.253-12.728.575-15.457 2.05l-1.666-1.898c-1.982-1.455-4.994-4.23-6.943-5.912.871-.738 1.365-.976 2.334-1.557-1.38-.218-1.33-.135-2.418-.981 1.978-2.135 7.596-1.868 10.567-3.01 1.878-.321 3.768-.605 5.668-.784 14.77-1.394 28.287-4.157 43.199-4.467l.307-2.931c.54-2.688.496-5.289 3.19-6.396.775.868.837 1.179 1.914 1.46 1.792-.001 3.69-.052 5.467.11l1.071-2.003c2.111 1.138 3.196 1.643 5.042 3.256 1.464-.884 21.988-4.37 25.322-5.024l1.047.745c1.006-.38 3.155-1.917 4.164-2.588"/><path fill="#449694" d="M748.85 242.003c4.776-.082 6.82 1.253 8.276 5.899 1.14 10.946-3.705 13.806-14.119 14.361 1.183-.837 4.223-2.183 5.565-1.884l-.551.051c.28-.117.814-.337 1.084-.461-2.955.604-4.473.353-7.29-.7l8.042-.653c-14.264-9.478-14.615-3.85-30.041-3.985l-.681-.011.68-2.824-1.498-2.926c1.464-.884 21.988-4.37 25.322-5.024l1.047.745c1.006-.38 3.155-1.917 4.164-2.588"/><path fill="#1f2e33" d="M718.317 248.87c1.464-.884 21.988-4.37 25.322-5.024l1.047.745c-1.19 1.864-1.87 2.855-2.726 4.944-6.962.388-15.281.886-22.144 2.261z"/><path fill="#494c4d" d="M748.623 245.195c1.875.095 2.268.17 4.068.709 3.683 3.038 2.423 7.313-.465 10.457-4.372-2.323-10.092-7.24-3.603-11.166"/><path fill="#56aaa7" d="M648.919 272.085c4.851-1.79 32.668-4.726 39.33-5.517a1457 1457 0 0 0 53.566-7.299c2.817 1.053 4.335 1.304 7.29.7-.27.124-.804.344-1.084.461l.55-.051c-1.341-.299-4.381 1.047-5.564 1.884-25.088 5.223-51.52 6.034-76.965 9.67-3.55.253-12.728.575-15.457 2.05z"/><path fill="#448788" d="M701.326 255.374c1.12 2.522 1.308 2.12 4.254 2.337-14.562 2.293-29.38 3.232-43.953 5.704-5.157.875-12.236-.05-17.317 1.201-1.38-.218-1.33-.135-2.418-.981 1.978-2.135 7.596-1.868 10.567-3.01 1.878-.321 3.768-.605 5.668-.784 14.77-1.394 28.287-4.157 43.199-4.467"/><path fill="#46a4a1" d="M713.275 245.614c2.111 1.138 3.196 1.643 5.042 3.256l1.499 2.926-.681 2.824c-1.785 1.099-1.924 1.27-3.938 1.619l-.648-.573c.226-2.031.398-3.372.334-5.446-.826-1.687-.945-1.692-2.679-2.602z"/><path fill="#46a4a1" d="M704.824 246.047c.774.868.836 1.179 1.913 1.46-4.976 4.24.801 6.476-.705 9.86l-.452.344c-2.946-.216-3.134.185-4.254-2.337l.307-2.931c.54-2.688.496-5.289 3.19-6.396"/><path fill="#494c4d" d="m716.616 354.818.062 2.238c-.358 4.395 1.284 6.08.333 13.281-1.11 1.65-2.817 4.995-3.809 6.072-7.913 8.586-15.008 11.626-12.136 25.147 1.896 8.934 4.38 12.606-1.5 21.122-1.556 2.255-4.916 6.988-6.046 9.403l-1.72.066-.244-.963c-1.756-14.849-4.333-37.441-4.897-52.208l-.203-.721c.34-1.602.282-1.535 1.44-2.674l2.346-3.048c.538.472 1.202.994 1.642 1.538 1.373-1.397 6.785-8.662 8.362-10.668l.673-1.427 2.076 1.461c1.15-.42 2.078-.485 3.295-.675 1.508-1.522 2.394-2.33 3.575-4.172l1.569-1.664 1.75.139 2.553-1.668z"/><path fill="#449694" d="m716.616 354.818.062 2.238c-.358 4.395 1.284 6.08.333 13.281-1.11 1.65-2.817 4.995-3.809 6.072-7.913 8.586-15.008 11.626-12.136 25.147 1.896 8.934 4.38 12.606-1.5 21.122-1.556 2.255-4.916 6.988-6.046 9.403l-1.72.066-.244-.963c1.96-4.415 4.399-7.784 7.071-11.785 4.996-10.667-8.451-25.22 4.194-37.36 2.407-2.013 7.07-6.306 9.01-8.781 4.17-5.322 1.997-10.632 1.353-16.193l2.553-1.668z"/><path fill="#434f50" d="M698.627 419.399c-1.056-3.893.022-8.731-.74-12.763-.717-4.188-3.452-3.884-3.926-8.334-.72-6.775.775-15.347 8.86-16.264-12.645 12.14.802 26.694-4.194 37.36"/><path fill="#787b79" d="M700.246 363.403c.97 3.2-.778 4.702-2.664 7.286-1.79 2.289-5.502 7.328-7.542 8.99l-.509-.466.019-1.02 2.334-4.122c1.373-1.397 6.785-8.662 8.362-10.668"/><path fill="#34393b" d="m700.92 361.976 2.075 1.461 2.023 4.11c-1.324 3.484-3.859 5.694-7.436 3.142 1.886-2.584 3.634-4.086 2.664-7.286z"/><path fill="#787b79" d="M706.29 362.762c1.766 1.639 1.885 1.256 2.513 3.235-1.195 1.277-1.731 1.212-3.785 1.55l-2.023-4.11c1.15-.42 2.078-.485 3.295-.675"/><path fill="#1f2e33" d="M690.242 372.533c.538.472 1.202.994 1.642 1.538l-2.334 4.122c-1.12-.612-.526-.443-1.877-.425.059.555.112 1.02.006 1.57l-1.02-.362-.203-.721c.34-1.602.282-1.535 1.44-2.674z"/><path fill="#3b4142" d="m723.451 414.046.407-1.85.527-.19c.968 2.037 1.087 3.628 1.42 5.829.352-1.295.198-4.105.178-5.567 1.023 1.656 1.261 1.852 1.538 3.72.047 1.85-.15 4.993.776 6.392 1.893 3.428.097 6.037-1.61 9.295l-2.71 1.135c-3.176 6.982-9.678 11.064-10.984 17.517l3.264-2.333.872 2.117c-2.043 2.347-12.393 15.114-13.47 17.372-2.128.437-2.72.47-4.9.46-1.148.684-.542.51-1.883.538-1.976-2.705-1.752-10.147-1.857-13.734l-.404-2.98c4.172-3.771 9.837-13.339 13.879-18.041 4.439-5.166 9.19-10.125 13.475-15.376 1.367-1.678 1.746-2.447 1.482-4.304"/><path fill="#46a4a1" d="m723.451 414.046.407-1.85.527-.19c.968 2.037 1.087 3.628 1.42 5.829-4.217 7.158-9.864 12.602-15.27 18.901-3.388 3.946-11.13 16.292-15.516 18.011l-.404-2.98c4.172-3.771 9.837-13.339 13.879-18.041 4.439-5.166 9.19-10.125 13.475-15.376 1.367-1.678 1.746-2.447 1.482-4.304"/><path fill="#448788" d="m712.993 450.327 3.264-2.333.872 2.117c-2.043 2.347-12.393 15.114-13.47 17.372-2.128.437-2.72.47-4.9.46 5.117-5.727 8.205-11.702 14.234-17.616"/><path fill="#3f6e84" d="M728.297 422.38c1.893 3.428.097 6.037-1.61 9.295l-2.71 1.135c.562-3.208 2.707-7.572 4.32-10.43"/><path fill="#2f7f7d" d="M791.333 418.795c4.527 2.928 5.75 8.615 2.869 13.129a7.4 7.4 0 0 1-4.892 3.347c-5.154.982-8.323-2.249-11.863-5.27-5.845-.203-24.994 2.073-30.396 3.644-1.419 1.002-1.165.42-1.617 1.685l-.732.322c1.948-.201 3.365-.804 4.83.86-5.99.907-6.756 2.317-10.545 7.12-6.046 1.478-11.9 1.476-17.79 2.659-1.542.46-3.554.963-4.94 1.703l-3.264 2.333c1.306-6.453 7.808-10.535 10.984-17.517l2.71-1.135c1.456.386 12.738-1.244 15.059-1.538 5.248-.614 33.032-3.155 35.695-4.673l.425-1.819.296.01 1.161 1.298 1.404-.277c2.638-3.246 4.54-3.464 8.426-3.576 1.455-.192.134-.075 2.18-2.305"/><path fill="#34393b" d="M721.198 446.29c-1.087-.182-1.03-.127-1.87-.83 2.458-11.806 18.08-10.976 27.723-11.815-1.419 1.002-1.165.42-1.617 1.685l-.732.322c1.948-.201 3.365-.804 4.83.86-5.99.907-6.756 2.317-10.545 7.12-6.046 1.478-11.9 1.476-17.79 2.659"/><path fill="#34393b" d="M789.153 421.1c11.311 6.37-7.915 20.249-8.426 3.576 2.638-3.246 4.54-3.464 8.426-3.576"/><path fill="#1f2e33" d="M714.251 312.977c3.216-.314 4.507-1.427 8.97-1.5l.659 1.051c1.883.747 1.852.385 2.804 1.762 1.263.805 2.632 1.746 3.954 2.415 2.546 9.893-.388 7.716-2.092 16.566-.747 3.88.66 11.08.487 15.565-3.38 6.107-5.58 5.885-9.184 11.091-.015.022.46 2.536.556 2.977-2.317 1.47-.942 6.008-3.394 7.433.95-7.202-.691-8.886-.333-13.281l-.062-2.238c1.763-1.507 2.777-2.6 4.322-4.274l.794-1.543c1.355-6.212.075-8.8-2.376-14.316l-.496-.059-2.35-3.56c-2.06-1.995-3.108-4.867-4.137-7.483l-.417 1.095c-1.648.315-3.334-.764-4.94-1.506 2.22-5.445 2.866-5.984 7.235-10.195"/><path fill="#34393b" d="M714.251 312.977c3.216-.314 4.507-1.427 8.97-1.5l.659 1.051c1.883.747 1.852.385 2.804 1.762l-.738 2.135-.258.062-.856 1.445c.139 1.543.42 3.873.375 5.354-1.481 3.309-2.42 4.104-5.466 6.114-1.823.297-1.867.343-3.231 1.666-2.06-1.995-3.108-4.867-4.137-7.483l-.417 1.095c-1.648.315-3.334-.764-4.94-1.506 2.22-5.445 2.866-5.984 7.235-10.195"/><path fill="#314646" d="M714.251 312.977c3.216-.314 4.507-1.427 8.97-1.5l.659 1.051c1.883.747 1.852.385 2.804 1.762l-.738 2.135-.258.062-.856 1.445c-3.894-1.346-6.179-1.52-9.792.615-.851-.456-1.073-.905-1.728-1.677-1.09 2.679-1.254 3.808-.94 6.713l-.416 1.095c-1.648.315-3.334-.764-4.94-1.506 2.22-5.445 2.866-5.984 7.235-10.195"/><path fill="#449694" d="M713.312 316.87c3.608-3.269 9.045-4.937 12.376-.383l-.856 1.445c-3.894-1.346-6.179-1.52-9.792.615-.851-.456-1.073-.905-1.728-1.677"/><defs><linearGradient id="f" x1="388.624" x2="392.257" y1="175.439" y2="178.115" gradientUnits="userSpaceOnUse"><stop offset="0" stop-color="#4b7676"/><stop offset="1" stop-color="#3c8e8c"/></linearGradient></defs><path fill="url(#f)" d="M389.673 173.045c.358.422.479.667.944.916-.084 1.971.569 5.068 2.568 5.927-.996.162-1.02.187-1.765.91-1.125-1.09-1.698-2.658-2.26-4.087-.172-1.586-.082-2.203.513-3.666" transform="scale(1.83054 1.83114)"/><path fill="#46a4a1" d="m719.356 334.685 2.245-.632c2.176 4.966 4.988 11.375 2.842 16.861a9.35 9.35 0 0 1-5.284 5.305c-.817.32-1.644.579-2.48.837l-.063-2.238c1.763-1.507 2.777-2.6 4.322-4.274l.794-1.543c1.355-6.212.075-8.8-2.376-14.316"/><path fill="#449694" d="m725.207 323.286 1.386-.571.89.593c-1.603 6.222-5.395 8.112-5.882 10.745l-2.245.632-.496-.059-2.35-3.56c1.364-1.323 1.408-1.37 3.23-1.666 3.047-2.01 3.986-2.805 5.467-6.114"/><path fill="#448788" d="m725.688 316.487.258-.062c.903 2.274 1.862 4.378 1.536 6.883l-.89-.593-1.385.57c.046-1.48-.236-3.81-.375-5.353z"/><path fill="#46a4a1" d="M749.533 436.513c14.002 6.462 5.213 20.803-5.84 15.308-3.384-1.683-3.503-6.334-10.412-4.464-5.105.93-11.133 1.067-16.152 2.754l-.872-2.117c1.386-.74 3.398-1.243 4.94-1.703 5.89-1.183 11.744-1.181 17.79-2.659 3.79-4.803 4.554-6.213 10.546-7.12"/><path fill="#3b4142" d="M747.805 439.615c7.769 1.801 7.304 7.223 1.164 11.067-8.157-1.234-7.613-7.828-1.164-11.067"/><path fill="#2f7f7d" d="M721.85 389.456c5.195-.167 8.4.86 10.437 6.156.037 2.08.198 4.221-.228 6.235-.965 2.472-1.306 3.562-3.38 5.408-1.508.937-2.88 1.536-3.72 3.036.323 1.591-.063.983 1.024 1.977.02 1.462.174 4.272-.178 5.567-.333-2.201-.452-3.792-1.42-5.828l-.527.19-.407 1.85c.236.302-6.002-11.42-5.907-11.103-1.922-6.896.377-8.434 4.306-13.488"/><path fill="#34393b" d="M719.318 401.333c1.144-11.79 9.927-12.371 10.98-.78l-2.373 3.376-1.966 2.004c-1.095.146-1.982.084-3.075.053-1.655-.943-1.022-.299-1.9-2.068z"/><defs><linearGradient id="g" x1="396.136" x2="395.226" y1="217.529" y2="220.878" gradientUnits="userSpaceOnUse"><stop offset="0" stop-color="#5d5758"/><stop offset="1" stop-color="#606564"/></linearGradient></defs><path fill="url(#g)" d="M393.864 220.583c.544-1.98.889-2.707 2.955-3.525l.484.266c.229 1.172.162 1.412.049 2.628l.304.637-1.074 1.094c-.598.08-1.083.046-1.68.029-.904-.515-.558-.163-1.038-1.129" transform="scale(1.83054 1.83114)"/><path fill="#448788" d="M717.544 402.944c.202-2.186.487-4.323.767-6.499.407 1.672.694 3.201 1.007 4.888l1.666 2.585c.878 1.77.245 1.125 1.9 2.068 1.093.03 1.98.093 3.075-.053 2.061.318 1.379-.08 2.72 1.322-1.508.937-2.88 1.536-3.72 3.036.323 1.591-.063.983 1.024 1.977.02 1.462.174 4.272-.178 5.567-.333-2.201-.452-3.792-1.42-5.828l-.527.19-.407 1.85c.236.302-6.002-11.42-5.907-11.103"/><path fill="#448788" d="M730.298 400.553c.269-1.236.228-2.297.99-2.904.509 1.789.615 2.345.77 4.198-.964 2.472-1.305 3.562-3.379 5.408-1.341-1.401-.659-1.004-2.72-1.322l1.966-2.004z"/><path fill="#34393b" d="M720.405 362.904c6.09 13.208-11.785 21.916-16.508 31.725-2.42 5.028 3.479 7.557-.038 11.091.108 2.855 1.318 5.195 1.199 7.12-.379 6.161-7.13 14.4-10.619 19.913l-.919-.672c1.13-2.415 4.49-7.148 6.046-9.403 5.88-8.516 3.396-12.188 1.5-21.122-2.872-13.521 4.223-16.56 12.136-25.147.992-1.077 2.698-4.422 3.81-6.072 2.45-1.425 1.076-5.964 3.393-7.433"/><path fill="#b8b8b7" d="M808.01 230.762c17.741-1.816 30.105 6.02 45.3 14.105 3.45 1.835 7.758 4.911 10.646 7.495-1.378-.042-3.44.138-4.873.216-13.976-9.957-34.438-17.723-51.074-21.816"/><defs><linearGradient id="h" x1="486.85" x2="492.474" y1="169.563" y2="159.166" gradientUnits="userSpaceOnUse"><stop offset="0" stop-color="#6c6c73"/><stop offset="1" stop-color="#a2a09a"/></linearGradient></defs><path fill="url(#h)" d="M483.774 149.571c4.85 5.381 10.426 21.106 10.76 28.568-.198-.246-2.162-4.345-2.287-4.715-2.334-6.922-4.655-14.601-8.465-20.859l.432-.128a58 58 0 0 0 3.019 3.645c-1.093-2.014-3.072-4.507-3.459-6.511" transform="scale(1.83054 1.83114)"/><path fill="#c0bfbe" d="M744.03 338.728c2.56 4.136 3.81 20.007 5.516 26.819l.05-.246c1.127 5.717 1.965 10.524 2.686 16.5.775 6.417 1.01 13.928 2.179 20.255.14.767 1.706 1.892 2.368 2.368-6.93-.703-6.52-7.609-6.806-12.866-.91-5.332-.55-10.802-1.543-15.999l.022-.527c.161-1.818.169-1.736-.322-3.496-1.398-7.282-3.767-25.756-4.15-32.808"/><path fill="#448788" d="M748.18 371.536c.49 1.76.483 1.678.322 3.496l-.022.527c.992 5.197.634 10.667 1.543 16-.23 1.774-.446 3.46-.607 5.247-.802-1.626.66-1.71-.954-4.058-6.62-1.494-7.483-6.81-9.037-12.865 1.389-2.238 2.032-3.023 3.743-4.963 1.997-2.263 3.817-2.065 5.012-3.384"/><path fill="#34393b" d="M742.696 381.337c1.267-2.66 2.51-5.668 4.944-7.35l.862 1.045-.022.527c-.558 3.412.99 9.533-1.263 11.961l-1.076-.24c-1.756-1.613-2.49-3.759-3.445-5.943"/><path fill="#c0bfbe" d="M859.083 252.578c1.434-.078 3.495-.258 4.873-.216 7.842 6.87 15.461 12.98 21.612 21.523.708 3.67 4.33 8.235 6.331 11.923a106 106 0 0 1-5.526-6.675l-.79.235c-.612-.394-8.368-9.45-9.723-10.883a182 182 0 0 0-16.777-15.907"/><path fill="#434f50" d="M762.398 262.067c9.819-4.733 13.661 4.944 7.965 10.517-8.099 1.679-10.164-3.478-7.965-10.517"/><path fill="#34393b" d="M733.867 392.151c4.082 4.556 2.528 10.345 1.234 15.823-2.499 2.36-5.907 5.15-7.58 8.013-.277-1.867-.515-2.063-1.538-3.719-1.087-.994-.701-.386-1.023-1.977.838-1.5 2.211-2.099 3.72-3.036 2.073-1.846 2.414-2.936 3.379-5.408.426-2.014.265-4.155.228-6.235 1.062-.712 1.126-1.968 1.58-3.46"/><path fill="#1f2e33" d="m652.46 260.624-.45-.494a99 99 0 0 1 5.811-.894c-2.53-1.96-13.176 1.317-15.71-.423 2.321.01 19.135-.565 20.82-1.184 1.167-1.637-.25-3.822.217-7.222l.62-.076c.994 2.223 1.075 4.813 2.548 6.078 5.177.456 30.452-2.564 35.317-3.966l-.307 2.931c-14.912.31-28.429 3.073-43.2 4.467-1.9.179-3.789.463-5.667.783"/><path fill="#1f2e33" d="M741.746 430.137c-1.792-.035-2.144.003-3.844-.47 3.985-2.656 34.194-5.586 39.964-6.022l-.425 1.819c-2.663 1.518-30.447 4.06-35.695 4.673"/><path fill="#449694" d="M768.61 255.96c4.767 2.359 5.968 3.73 7.689 8.79l.232.694c-.798 3.545-1.006 5.653-3.512 8.348-.866-.694-1.61-.855-2.656-1.208 5.696-5.573 1.854-15.25-7.965-10.517l-.267-.81c-1.362-.552-1.49-.13-3.343.47l1.483-1.764c3-2.124 4.907-2.946 8.34-4.003"/><path fill="#34393b" d="m768.61 255.96.098-.576c1.2-1.08 2.184-.738 4.155-.815 7.441 4.515 10.033 9.295 4.855 17.229l-.33.494c-.836-3.056.447-4.816-.857-6.848l-.232-.694c-1.72-5.06-2.922-6.431-7.688-8.79"/><path fill="#c0bfbe" d="M738.361 303.825c1.78-.445 2.532-.797 4.285-.488 4.092 3.291.48 22.83.513 28.71-2.01-7.496-.871-19.407-2.572-27.058-.152-.683-1.33-.855-2.226-1.164"/><path fill="#b8b8b7" d="M750.023 391.558c.286 5.257-.124 12.163 6.806 12.866 3.074.586 2.596.666 4.83 2.437-3.43.742-7.953.996-11.524 1.304q-.448-5.675-.72-11.359c.162-1.787.378-3.473.608-5.248"/><path fill="#494c4d" d="M758.96 254.818c6.568-.943 7.275-1.958 13.903-.25-1.971.078-2.954-.265-4.155.816l-.097.576c-3.433 1.057-5.34 1.88-8.34 4.003l-1.002-.83c-.657-2.063-.918-2.361-.309-4.315"/><path fill="#449694" d="M778.162 423.654c2.496-6.094 7.555-6.319 13.171-4.86-2.046 2.23-.725 2.114-2.18 2.306-3.886.112-5.788.33-8.426 3.576l-1.404.277z"/><path fill="#3b4142" d="m748.85 242.003-.805-.446c2.568-1.722 10.077.882 13.776 1.439-.87 2.212-2.945 1.64-2.996 4.64-.385-1.058.16-1.3-.405-2.159l-.232 1.709-1.062.716c-1.455-4.646-3.5-5.98-8.276-5.899"/><path fill="#1f2e33" d="m721.85 389.456-.097-.862c4.732-2.606 8.213.525 12.114 3.557-.454 1.493-.518 2.749-1.58 3.461-2.037-5.295-5.242-6.323-10.437-6.156"/><path fill="#494c4d" d="m728.264 310.517.974.118.342.75c1.36 2.93 3.317 5.867 5.049 8.609-2.984-1.357-2.316-1.969-3.991-3.29-1.322-.668-2.69-1.609-3.954-2.414-.952-1.377-.92-1.015-2.804-1.762l.558-.048c2.043-.155 2.246-.505 3.826-1.963"/><path fill="#56aaa7" d="M704.824 246.047c3.357-1.008 4.814-1.14 8.451-.433l-1.07 2.004c-1.778-.163-3.676-.112-5.468-.11-1.077-.282-1.139-.593-1.913-1.461"/><path fill="#686868" d="M723.22 311.477c.704-1.428.947-2.386 2.344-3.076 1.788.472 1.26.382 2.7 2.116-1.58 1.458-1.783 1.808-3.826 1.963l-.558.048z"/><defs><linearGradient id="i" x1="125.47" x2="190.103" y1="287.533" y2="158.34" gradientUnits="userSpaceOnUse"><stop offset="0" stop-color="#262728"/><stop offset="1" stop-color="#444649"/></linearGradient></defs><path fill="url(#i)" d="M138.551 154.052c11.532-1.127 19.048-2.591 30.696-1.841 6.443-.974 17.211 2.864 23.012 5.775 1.571.788 2.42 1.969 3.323.476 2.381 1.144 4.087 2.898 6.22 4.108 5.117 2.904 7.043 7.523 10.661 11.324 5.725 6.017 11.17 11.686 13.642 20.049 1.88 6.17 1.398 7.126.895 13.284 1.405 17.901-.165 32.63-12.149 47.14-8.842 10.706-22.4 18.914-35.873 22.051-8.13 1.892-18.781 2.596-27.291 3.437a793 793 0 0 0-36.084 4.266c-.982-.02-1.642.062-2.51-.387-.751-.91-.595-2.47-.642-3.765-.412-1.965-.653-3.124-.794-5.11l-.263-1.807c-.166-3.399-.538-7.082-.82-10.495l-.266-2.92c-.308-6.971-1.783-17.714-2.776-24.73l-.129-2.638c-.157-2.512-.39-4.45-.731-6.931-.295-1.849-.453-3.829-.636-5.7-.76-6.828-2.004-15.897-2.19-22.554a905 905 0 0 0 17.781-1.574c4.883-.499 11.552-1.352 16.415-1.218.602 9.471 1.596 26.971 3.526 36.013l.199 1.249-.005 1.212c.257 1.74.195 5.503.547 6.601 1.516 1.316 1.94 1.794 2.06 3.993.123 2.251-.253 5.071-.705 7.258 1.427-.077 2.822-.207 4.241-.068 15.683-2.043 27.934-.081 39.597-13.117 16.555-18.241 7.279-49.756-17.753-53.826-8.623-1.402-18.214.894-26.822 1.665-10.241.917-20.569 2.197-30.83 2.819-2.627-2.904-5.067-5.395-7.849-8.156l-1.783-1.945c-1.544-1.295-2.396-2.134-3.787-3.604l-1.088-1.276c-1.197-1.077-2.363-2.237-3.519-3.362l-1.336-1.321c-2.984-2.622-5.756-5.987-8.31-9.02 5.894.102 10.756-1.031 16.473-1.683 5.205-.594 11.116-1.154 16.35-1.481 4.926-.927 15.832-1.676 21.303-2.191" transform="scale(1.83054 1.83114)"/><defs><linearGradient id="j" x1="130.93" x2="121.422" y1="179.417" y2="162.402" gradientUnits="userSpaceOnUse"><stop offset="0" stop-color="#132024"/><stop offset="1" stop-color="#394a4f"/></linearGradient></defs><path fill="url(#j)" d="M117.248 156.243c4.926-.927 15.832-1.676 21.303-2.191 1.266.835 3.371.262 5.065.179 1.009 1.001 2.845 2.93 3.893 3.748.967.85 3.176 5.517 3.584 6.778l-.111.642.831.365c-3.697.037-4.024 3.012-5.818 5.258-.773.967-3.433 1.267-4.604 2.223-2.618.547-7.317.913-10.121 1.193l-17.217 1.712c-2.956.297-8.909.815-11.588 1.84-1.544-1.295-2.396-2.134-3.787-3.604l-1.088-1.276c-1.197-1.077-2.363-2.237-3.519-3.362l-1.336-1.321c-2.984-2.622-5.756-5.987-8.31-9.02 5.894.102 10.756-1.031 16.473-1.683 5.205-.594 11.116-1.154 16.35-1.481" transform="scale(1.83054 1.83114)"/><path fill="#3b4142" d="M214.627 286.103c9.017-1.698 28.981-3.07 38.996-4.012 2.318 1.529 6.17.48 9.272.328 1.847 1.833 5.208 5.365 7.126 6.863-.188 1.747.156.981-1.248 2.28-1.492-.173-2.206-.85-3.453-1.704a753 753 0 0 1-8.39-.26c1.112.846 2.08 1.055 3.402 1.491-2.797 2.47-6.032 6.825-8.76 7.196-8.507 1.436-17.23 1.77-25.815 3.139-9.567 1.447-18.965 2.494-28.571 3.536-5.88.635-13.103 2.172-18.777 2.617-1.86.06-6.932.382-8.654.836-5.462-4.8-10.537-10.963-15.21-16.516 10.787.186 19.688-1.888 30.153-3.082 9.528-1.088 20.348-2.113 29.93-2.712"/><path fill="#494c4d" d="M214.627 286.103c9.017-1.698 28.981-3.07 38.996-4.012 2.318 1.529 6.17.48 9.272.328 1.847 1.833 5.208 5.365 7.126 6.863-.188 1.747.156.981-1.248 2.28-1.492-.173-2.206-.85-3.453-1.704a753 753 0 0 1-8.39-.26c1.112.846 2.08 1.055 3.402 1.491-2.797 2.47-6.032 6.825-8.76 7.196-8.507 1.436-17.23 1.77-25.815 3.139-.562-.33-1.062-.852-1.556-1.298-2.503.333-5.583-1.69-8.179-2.165-3.311-.604-12.35.255-12.905-4.05 3.91-4.684 16.83.038 19.99-2.736-.832-3.305-5.322-5.012-8.48-5.072"/><path fill="#1f2e33" d="M224.2 300.126c-.021-1.804-.003-2.313.345-4.076 1.944-1.033 22.146-.464 25.357.553l1.67 1.682c-8.507 1.436-17.23 1.77-25.815 3.139-.562-.33-1.062-.852-1.556-1.298"/><path fill="#243a3f" d="M260.332 291.089c7.838-1.181 12.81 5.528 8.752 11.338l-.551-.276c-.776 1.509-1.413 2.714-2.292 4.164l-.908.16-.351-.614 1.02-1.822-.085-.284-1.693.357c-5.098-1.562-6.197-4.14-4.51-9.035-3.296 1.943-1.044 3.761-2.893 6.048-2.539-.64-4.428-.756-7.004-.677l1.256.522-1.285-.24.943.306-.286-.432c1.525.014.85-.211 2.085.728l-.428-.185c.761.043 1.823.065 2.548.17 1.345.947 6.502 4.357 6.74 5.476-10.117 1.891-20.407 2.789-30.64 3.93-17.448 1.944-34.73 3.676-52.107 6.266-2.192-1.972-4.326-4.097-6.442-6.157l-2.446-2.419c1.722-.454 6.794-.776 8.654-.836 5.674-.445 12.897-1.982 18.777-2.617 9.606-1.042 19.004-2.09 28.57-3.536 8.586-1.37 17.309-1.703 25.815-3.139 2.73-.371 5.964-4.726 8.761-7.196"/><path fill="#448788" d="M260.332 291.089c7.838-1.181 12.81 5.528 8.752 11.338l-.551-.276c-.776 1.509-1.413 2.714-2.292 4.164l-.908.16-.351-.614 1.02-1.822-.085-.284-1.693.357c-5.098-1.562-6.197-4.14-4.51-9.035-3.296 1.943-1.044 3.761-2.893 6.048-2.539-.64-4.428-.756-7.004-.677l1.256.522-1.285-.24.943.306-.286-.432c1.525.014.85-.211 2.085.728l-.428-.185c.761.043 1.823.065 2.548.17a2955 2955 0 0 0-47.73 4.48c-8.052.853-18.032 2.307-25.96 2.803-1.194-.35-1.937-.21-3.213-.188l.662-.835c5.674-.445 12.897-1.982 18.777-2.617 9.606-1.042 19.004-2.09 28.57-3.536 8.586-1.37 17.309-1.703 25.815-3.139 2.73-.371 5.964-4.726 8.761-7.196"/><path fill="#1f2e33" d="M259.713 295.077c7.85-2.245 9.46 1.74 6.204 8.678l-1.693.357c-5.098-1.562-6.197-4.14-4.51-9.035"/><path fill="#3f6e84" d="M169.755 308.413c1.722-.454 6.794-.776 8.654-.836l-.662.835c1.276-.022 2.019-.162 3.213.188-3.288 1.507-5.455-.079-8.76 2.232z"/><path fill="#449694" d="M254.65 301.318c-.725-.106-1.787-.128-2.548-.17l.428.184c-1.235-.939-.56-.714-2.085-.728l.286.432-.943-.306 1.285.24-1.256-.522c2.576-.079 4.465.037 7.004.677 1.849-2.287-.403-4.105 2.892-6.048-1.686 4.895-.587 7.473 4.51 9.035l1.694-.357.084.284-1.02 1.822.352.613.908-.16c.879-1.45 1.516-2.654 2.292-4.163l.55.276c-.82 2.903-1.735 4.186-3.7 6.5-3.24 1.612-6.171 1.557-9.699 1.852-23.79 1.989-47.4 5.505-71.23 7.142-1.31.09-2.76.626-3.82 1.404l-1.991-2.336c17.377-2.59 34.659-4.322 52.107-6.267 10.233-1.14 20.523-2.038 30.64-3.93-.238-1.118-5.395-4.528-6.74-5.474"/><path fill="#3b4142" d="m208.881 408.37.767-2.599 1.353-.507c1.946 1.894 3.602 2.24 6.178 3.106l2.004 2.177.866 2.17c1.952-.165 1.655-.432 3.158.306.48 2.029-.258 3.061-1.351 4.805-8.378 8.577-15.944 14.993-15.131 27.613.364 5.653.293 14.22 2.226 19.485-.923 3.209-4.418 8.687-7.028 10.506-.564-12.765-3.264-32.437-5.081-45.284l-.237-4.83c2.128-1.515 9.505-13.251 12.073-16.584z"/><path fill="#56aaa7" d="M196.605 425.317c2.128-1.514 9.505-13.25 12.073-16.583.547.817.908 1.504 1.625 2.15-2.491 3.073-12.969 16.29-13.461 19.264z"/><path fill="#46a4a1" d="m208.881 408.37.767-2.599 1.353-.507c1.946 1.894 3.602 2.24 6.178 3.106l2.004 2.177.866 2.17c-5.927.738-4.095-2.895-9.746-1.833-.717-.646-1.078-1.333-1.625-2.15z"/><path fill="#1f2e33" d="M213.758 384.364c1.887-.663 2.12-.606 4.164-.634 4.373 2.155 6.617 7.612 4.626 12.175l-.537.332c2.261 5.63.41 7.277 1.335 11.76-2.061.093-1.63-.242-3.257 1.534q-.454.503-.906 1.016l-2.004-2.177c-2.576-.866-4.232-1.212-6.178-3.106l-1.353.507-.767 2.599-.203.364c-2.568 3.333-9.945 15.069-12.073 16.583-.287-4.6-.713-8.149-1.338-12.692-.54-3.385-.829-7.011-1.164-10.437 6.081-3.027 3.866-17.06 19.655-17.824"/><path fill="#448788" d="M208.881 408.37c-.238-2.3-1.155-4.684-1.252-7.092-.373-9.266 8.318-10.903 14.382-5.041 2.261 5.63.41 7.277 1.335 11.76-2.061.093-1.63-.242-3.257 1.534q-.454.503-.906 1.016l-2.004-2.177c-2.576-.866-4.232-1.212-6.178-3.106l-1.353.507z"/><path fill="#243a3f" d="M211 405.264c.065-4.125-.816-7.724 4.114-9.155 6.78 1.48 7.447 11.849 2.065 12.26-2.576-.865-4.232-1.211-6.178-3.105"/><path fill="#3f6e84" d="M214.686 399.258c1.26.051 1.17.05 2.266.683.307 1.9-.022 1.666-1.056 3.81-1.803.248-1.082.49-2.332-.364-.264-1.847.228-2.36 1.122-4.129"/><path fill="#448788" d="M194.103 402.188c6.081-3.027 3.866-17.06 19.655-17.824 1.665 1.117 2.315 1.137 2.98 2.763-1.56 1.452-8.432 1.19-11.229 2.794-6.678 3.83-6.681 15.155-9.764 21.241-.377.744-.339.508-.478 1.463-.54-3.385-.829-7.011-1.164-10.437"/><path fill="#b8b8b7" d="M309.813 278.72c11.795-1.784 31.506 5.244 42.125 10.574 2.876 1.443 4.43 3.606 6.083.872 4.358 2.095 7.481 5.307 11.386 7.522 9.366 5.318 12.892 13.776 19.515 20.736 10.48 11.018 20.447 21.399 24.972 36.713 3.442 11.298 2.56 13.048 1.639 24.325-.647-2.469-1.42-6.873-1.555-9.389-5.061-18.756-9.19-28.46-21.047-44.414-15.025-20.218-39.587-37.185-63.954-43.722-5.484-1.472-13.333-2.236-19.164-3.217"/><path fill="#c0bfbe" d="M413.894 355.137c3.442 11.298 2.56 13.048 1.639 24.325-.647-2.469-1.42-6.873-1.555-9.389.05-3.774.033-11.4-.084-14.936"/><path fill="#1f2e33" d="M276.582 301.693c5.083 2.578 12.532.918 14.53 6.232 1.714 4.557-.87 10.715-5.216 13.109-1.469.088-1.92.27-3.05-1.031l-.333-.238c-.262-.357-.903-.978-1.234-1.32-3.51 1.078-4.3.85-7.68-.427l-1.643 2.118c-1.206-1.038-1.19-.966-2.653-1.34l-3.163-.352c.511-.65.178-.371 1.326-.51-1.073-.356-.661-.015-1.355-.878l1.334-1.296c-3.428.937-5.03 1.274-8.623 1.476 2.143-1.75 7.013-2.3 8.428-4.07 3.284-4.114 3.882-9.561 10.65-9.629l-1.521-.668z"/><path fill="#1f2e33" d="M277.144 307.599c6.716 1.215 7.84 5.544 4.135 10.845-3.51 1.079-4.3.852-7.68-.426-2.04-5.393-.601-7.285 3.545-10.42"/><path fill="#3ebaba" d="M267.445 315.76c3.612-5.43 4.824-13.952 14.476-9.21-2.154 1.422-2.72.637-4.777 1.049-4.146 3.134-5.585 5.026-3.544 10.419l-1.644 2.118c-1.206-1.038-1.19-.966-2.653-1.34l-3.163-.352c.511-.65.178-.371 1.326-.51-1.073-.356-.661-.015-1.355-.878z"/><path fill="#448788" d="M281.921 306.55c5.853 3.369 5.688 9.18.925 13.453l-.333-.238c-.262-.357-.903-.978-1.234-1.32 3.705-5.302 2.58-9.63-4.135-10.846 2.057-.412 2.623.373 4.777-1.05"/><path fill="#448788" d="M229.978 458.569c-4.867-3.304-10.09-8.207-4.512-14.334 2.927-3.214 10.866-4.754 13.94-1.03 1.947 2.36 1.074 7.008.753 9.854-2.681 3.113-3.258 3.53-7.355 4.894-.086 6.283-.117 9.559-1.845 15.732a100 100 0 0 1-10.295 13.182c1.163-2.866 1.41-2.221.784-4.772 8.147-9.276 9.057-11.847 8.53-23.526"/><path fill="#1f2e33" d="M230.566 443.932c10.461-.598 10.426 8.361 3.22 11.723-8.25.028-11.048-8.864-3.22-11.723"/><path fill="#448788" d="M258.822 317.236c3.593-.202 5.195-.539 8.623-1.476l-1.334 1.296c.694.863.282.522 1.355.878-1.148.139-.815-.14-1.326.51l3.163.352c-9.376 1.315-74.254 8.044-78.473 10.69l-3.264-3.561c4.904-1.877 15.801-2.826 21.213-3.37l31.516-3.135c5.133-.512 13.734-1.183 18.527-2.184"/><path fill="#448788" d="M296.25 469.878c10.056 3.534 10.655 13.407 1.487 17.958-3.042.399-4.838.588-7.562-.888l.363-.828c-1.847-4.05-1.375-5.01-2.612-8.273l-1.63-.602c.42-2.154 2.184-3.972 3.586-5.662 2.596-1.07 3.627-1.205 6.369-1.705"/><path fill="#212122" d="M293.082 472.432c2.764.013 5.658 1.205 7.286 3.518a6.5 6.5 0 0 1 1.07 4.942c-.5 2.617-1.976 3.778-4.01 5.202-8.882.81-11.12-8.205-4.346-13.662"/><path fill="#449694" d="m286.296 477.245 1.63.602c1.237 3.263.765 4.223 2.612 8.273l-.363.828c-2.361-1.694-2.932-2.633-4.688-4.933-13.591.789-35.549 1.853-49.003 4.499-2.105.414-5.719 4.44-7.335 6.257l-1.75 1.985-2.007-1.463c2.062-2.718 5.615-7.13 8.981-8.914 8.205-4.347 46.877-2.249 51.923-7.134"/><path fill="#449694" d="M221.856 417.828c1.426 1.439.606.987 2.506 1.481-3.787 4.633-10.522 12.128-13.27 16.905-.009 5.867.665 12.858.484 18.25-.288 5.051.724 7.46-2.625 10.462-1.933-5.264-1.862-13.832-2.226-19.485-.813-12.62 6.753-19.036 15.13-27.613"/><path fill="#286a68" d="m259.146 421.72.364 2.288-.009 2.22c.47 3.185.357 10.076 1.001 12.086.244 2.493.484 4.185.209 6.712-.181-.991-.403-1.976-.613-2.961-1.214-.454-5.898-1.837-6.605-2.346-10.644-7.682-2.383-15.777 5.653-17.998"/><path fill="#1f2e33" d="M259.501 426.227c-.417 3.864.902 8.449-.827 11.205-5.249 1.212-11.846-9.152.836-13.424z"/><path fill="#212122" d="M296.25 469.878c-1.74-.62-1.837-.68-3.657-.674l-.54-.546c.24-1.415.932-2.79 2.13-3.48 7.585-4.37 16.895 10.376 14.365 16.866-2.035 5.22-3.963 7.075-9.251 6.98l-1.56-1.188c9.168-4.55 8.569-14.424-1.486-17.958"/><path fill="#286a68" d="M220.99 498.453c-.937 2.615-1.093 3.602.282 6.039-3.138 5.882-7.027 8.681-9.656 15.773-1.798-.036-3.006.114-4.595-.708-1.375-1.667-1.089-4.523-1.175-6.895 3.537-.454 12.131-11.04 15.144-14.21"/><path fill="#494c4d" d="M223.92 375.816c1.4 1.516 2.92 3.376 4.934 4.01l2.869 1.326c.992.474 1.317.688 2.394.981-.66 5.9-.84 6.523 1.23 12.058l-1.697.779-1.91-.607c-3.547.625-4.455 2.885-7.038 3.185-1.99-9.636 4.476-10.053 4.985-14.46-1.572-3.392-5.21-2.176-5.766-7.272"/><path fill="#449694" d="M231.723 381.152c.992.474 1.317.688 2.394.981-.66 5.9-.84 6.523 1.23 12.058l-1.697.779-1.91-.607c-1.493-3.898-1.54-9.243-.017-13.211"/><path fill="#449694" d="m249.166 490.246.668 2.093-.839 1.477c-.706 2.031-.659 2.434-.61 4.604l-.836 1.24c-.549.032-1.396.111-1.951.08-1.726-1.337-3.355-.859-5.828-.553q-5.606.739-11.167 1.754c-2.94-.813-2.923-.296-5.804.526l.188.053-.745-.266.947-.756.155.941.15-1.173 3.34-2.152c5.234-1.547 12.29-2.646 17.821-3.637 1.781-2.159 2.135-2.68 4.51-4.231"/><path fill="#243a3f" d="M249.834 492.339c3.225-1.436 4.598-1.246 7.96-.914.772.668 1.584 1.327 2.29 2.06.074 9.031-9.177 10.862-11.7 4.935-.048-2.17-.095-2.573.611-4.604z"/><path fill="#1f2e33" d="M249.834 492.339c3.225-1.436 4.598-1.246 7.96-.914.772.668 1.584 1.327 2.29 2.06l-1.632 1.441c-2.852-.456-3.194-.449-6.03.097-1.89-.12-2.015-.066-3.427-1.207z"/><path fill="#434f50" d="M252.422 495.023c2.836-.546 3.178-.553 6.03-.097-.01 1.22-.22 1.368-.809 2.434-2.266 1.844-4.542 2.285-6.941.428l.034-1.236z"/><path fill="#070708" d="m240.16 453.059.51.88c-1.999 3.923-2.7 1.669-2.716 5.412l.472.813 1.854-.01c-4.532 4.346-2.044 16.468-9.32 13.53 1.727-6.172 1.758-9.448 1.844-15.73 4.097-1.365 4.674-1.782 7.355-4.895"/><path fill="#1f2e33" d="M230.245 377.832a27 27 0 0 1-1.135-.714c-6.198-4.135-3.615-9.518 3.731-10.19 4.428 4.482 4.682 11.118-2.596 10.904"/><path fill="#2f7f7d" d="M258.926 489.894c14.396 6.361-8.318 23.704-13.328 9.846.555.031 1.402-.048 1.951-.08l.835-1.24c2.523 5.927 11.774 4.096 11.7-4.935-.706-.733-1.518-1.392-2.29-2.06z"/><path fill="#b8b8b7" d="M260.502 438.314c2.775 2.41 3.552 3.286 3.771 7.312.225 4.122-.463 9.286-1.29 13.29 2.612-.14 5.165-.378 7.763-.124-13.694 4.027-11.144-4.252-10.035-13.766.275-2.527.035-4.22-.209-6.712"/><path fill="#2f7f7d" d="M203.911 499.996c5.927-5.914 11.509-11.977 17.537-17.9.626 2.55.379 1.905-.784 4.771-1.666 1.756-15.124 15.797-16.271 16.438z"/><path fill="#2f7f7d" d="M211.576 454.463c.298 4.095.565 8.323.979 12.397-3.174 4.858-7.17 9.381-10.145 13.919l-.487-5.347c2.61-1.819 6.105-7.297 7.028-10.506 3.35-3.003 2.337-5.41 2.625-10.463"/><path fill="#46a4a1" d="M234.437 364.734c7.12 5.457 2.997 11.082-.32 17.4-1.077-.294-1.402-.508-2.394-.982l-2.869-1.326 1.391-1.994c7.278.214 7.024-6.422 2.596-10.905-1.38-1.32-1.593-.877-3.996-1.016l-.19-.366c2.112-.143 3.265-.19 5.368-.705z"/><path fill="#494c4d" d="m231.74 394.363 1.91.607c-.132 5.303-4.153 6.612-7.82 11.113-.578-1.75-.85-6.323-1.128-8.535 2.583-.3 3.491-2.56 7.039-3.185"/><path fill="#449694" d="M223.92 375.816c-2.386-6.69 3.296-14.565 10.517-11.082l-.414.106c-2.103.515-3.256.562-5.368.705l.19.366c2.403.14 2.616-.304 3.996 1.016-7.346.673-9.929 6.056-3.73 10.19q.556.372 1.134.715l-1.391 1.994c-2.014-.634-3.535-2.494-4.933-4.01"/><path fill="#56aaa7" d="m223.346 407.996 3.458 1.961c1.646 4.27.079 5.955-2.442 9.352-1.9-.494-1.08-.042-2.506-1.481 1.093-1.744 1.83-2.776 1.35-4.805-1.502-.738-1.205-.47-3.157-.306l-.866-2.17q.45-.513.906-1.016c1.628-1.776 1.196-1.441 3.257-1.535"/><path fill="#448788" d="M235.347 394.191c1.845 9.27-4.873 8.27-8.543 15.766l-3.458-1.96c1.448-.517 1.532-.75 2.484-1.914 3.667-4.501 7.688-5.81 7.82-11.113z"/><path fill="#2f7f7d" d="M220.99 498.453c1.424-1.776 2.905-3.448 4.402-5.16l2.007 1.463-1.543 2.206c.333 1.02.012.632.977 1.152l-3.339 2.152-.15 1.173-.155-.94-.947.755.745.266-.188-.053c2.88-.822 2.864-1.339 5.804-.526-3.364.923-4.516 1.24-7.331 3.55-1.375-2.436-1.22-3.423-.282-6.038"/><path fill="#46a4a1" d="M273.6 318.018c3.379 1.278 4.17 1.505 7.679.426.331.343.972.964 1.234 1.32-3.716 2.647-7.039 4.196-10.557.372z"/><path fill="#448788" d="M249.166 490.246c3.963-1.094 5.56-1.597 9.76-.352l-1.133 1.53c-3.36-.33-4.734-.521-7.96.915z"/><defs><linearGradient id="k" x1="216.662" x2="301.589" y1="227.767" y2="157.871" gradientUnits="userSpaceOnUse"><stop offset="0" stop-color="#383d3f"/><stop offset="1" stop-color="#59585a"/></linearGradient></defs><path fill="url(#k)" d="M288.332 139.512c2.405 1.694 5.569 9.179 5.978 12.134l1.829 3.421c.863 1.872.87 2.383.478 4.42-1.711 6.454-5.252 15.654-6.342 21.24-.144 1.386-.205 1.568-.798 2.831-.929 3.633-1.884 7.385-3.121 10.922-.194.719-.394 1.581-.693 2.244a142 142 0 0 1-2.999 10.342c-2.431 7.334-4 14.886-6.22 22.276-2.409 8.762-4.671 17.294-7.821 25.84-.508 1.377-1.941 6.389-2.396 7.244l-1.668 5.651c-7.846 1.342-16.848 1.917-24.93 2.934-.551-3.445-.912-6.785-1.295-10.253-.345-1.714-.532-4.062-.681-5.81a787 787 0 0 0-1.744-18.713c-.327-2.04-.375-4.133-.471-6.2l-2.482-25.255c.427-.976 1.127-.774 2.114-.891l-1.233-.297c-.586-.864-.349-1.056-.258-2.293l.164-1.946c-.896.561-.55.399-1.684.465-2.663-12.383-7.976-19.483-16.215-28.943-.571-.442-1.181-1.065-1.711-1.576-6.832-5.394-15.551-13.852-22.019-19.862 4.787.06 28.323-2.174 32.544-3.476 1.171-.385.962-.504 2.018-.302 1.904 1.696 2.963 6.056 4.226 8.413 3.129 5.836 6.132 10.688 7.252 17.379.865 2.333 2.404 5.525 3.594 7.698 2.001.943 2.138 3.27 3.431 5.092.3-.908-.755-3.323-1.284-4.126l.159-.359c.752.509.716 1.914 1.301 2.473 3.457 3.305 5.013 7.839 6.755 12.199.566 1.417.956 5.702 2.763 6.143 1.421-2.594 2.816-9.278 3.664-12.556q3.686-13.972 7.003-28.035c1.53-6.292 3.401-12.55 4.973-18.905 4.134-.023 14.22-.353 17.819-1.563" transform="scale(1.83054 1.83114)"/><path fill="#34393b" d="M512.515 344.218c.351 3.479-.227 7.797 1.771 9.736 1.866-.084 1.11.227 2.49-.62 3.32.889 4.432 1.127 7.41 2.786-.355 1.317-.721 2.895-1.269 4.11a260 260 0 0 1-5.49 18.937c-4.45 13.43-7.321 27.258-11.385 40.79-4.41 16.045-8.55 31.668-14.317 47.317-.93 2.521-3.553 11.7-4.386 13.265l-3.053 10.348c-14.363 2.457-30.841 3.51-45.636 5.372-1.008-6.308-1.669-12.424-2.37-18.775 2.704-.164 3.736-.836 5.537-2.854.51-1.716.634-.98.055-2.317-.683.872-1.032 1.522-2.056 1.912-1.089-5.243 2.968-7.456 3.162-11.366.556-1.5 18.388-29.468 20.665-32.847l1.146-2.607c.023-5.525 5.543-12.123 4.953-18.039-.223-2.25-3.25-1.81-5.495-3.635l.955-.194.577.04c2.532 1.097 4.357.464 6.4-1.17 3.717-2.563 4-4.763 1.585-8.397l2.33-1.308c1.76 3.034 1.688 4.248 1.413 7.772 2.146-1.815 2.162-1.804 2.686-4.738.494 2.394.924 8.334 1.82 9.244 2.52-.212 2.27-.88 4.645-2.11l.923-2.094 3.075 1.188c.646-1.375.859-1.749 1.695-3.018.504-.316 1.13-.85 1.613-1.23 1.12-2.924.946-3.554-.461-6.398-2.474-4.997-3.109-7.101-2.596-12.576 3.892.042 3.311 2.31 7.69 2.829-2.416-1.104-3.096-1.002-2.988-3.692 2.613-4.697 8.703-7.963 10.266-10.582 1.093-4.948 1.741-6.537 3.831-11.218 2.76-3.883 2.735-9.386 2.809-13.861"/><defs><linearGradient id="l" x1="265.285" x2="274.597" y1="241.906" y2="247.803" gradientUnits="userSpaceOnUse"><stop offset="0" stop-color="#242d30"/><stop offset="1" stop-color="#484241"/></linearGradient></defs><path fill="url(#l)" d="M275.692 223.969c1.24 1.525.291 3.402.752 5.373-2.409 8.762-4.671 17.294-7.821 25.84-.508 1.377-1.941 6.389-2.396 7.244-.342-.194-.3-.137-.711-.205l-.247.927-.396.001c-.44-.74-.857-1.39-1.334-2.107l-.283.483c-2.835-7.591-2.262-10.581 1.166-17.672.887-1.149 2.736-4.482 3.519-5.844a425 425 0 0 0 7.751-14.04" transform="scale(1.83054 1.83114)"/><path fill="#494c4d" d="M512.515 344.218c.351 3.479-.227 7.797 1.771 9.736 1.866-.084 1.11.227 2.49-.62 3.32.889 4.432 1.127 7.41 2.786-.355 1.317-.721 2.895-1.269 4.11a260 260 0 0 1-5.49 18.937c-4.45 13.43-7.321 27.258-11.385 40.79-.844-3.609.893-7.046-1.377-9.838.339-1.724 3.954-8.999 5.045-13.424a605 605 0 0 1-3.884-12.989l6.094-3.814-.99-.359c.574-1.897-3.543-5.684-4.69-9.573l-.365-.663c1.093-4.948 1.741-6.537 3.831-11.218 2.76-3.883 2.735-9.386 2.809-13.861"/><path fill="#448788" d="M512.515 344.218c.351 3.479-.227 7.797 1.771 9.736 1.866-.084 1.11.227 2.49-.62 3.32.889 4.432 1.127 7.41 2.786-.355 1.317-.721 2.895-1.269 4.11-2.86-1.48-5.658-4.516-8.026-6.818-2.54 5.054-5.419 10.672-5.675 16.405l-1.549-.837c-1.208.478-.833.068-1.428.98l-.364-.663c1.093-4.948 1.741-6.537 3.831-11.218 2.76-3.883 2.735-9.386 2.809-13.861"/><path fill="#46a4a1" d="M506.24 369.96c.594-.912.22-.502 1.427-.98l1.549.837c1.673 2.27 4.541 5.422 5.26 7.755-.543 1.655-.825 1.62-2.556 2.32l-.99-.359c.574-1.897-3.543-5.684-4.69-9.573"/><defs><linearGradient id="m" x1="257.038" x2="261.653" y1="225.884" y2="228.393" gradientUnits="userSpaceOnUse"><stop offset="0" stop-color="#212a2f"/><stop offset="1" stop-color="#3e4445"/></linearGradient></defs><path fill="url(#m)" d="m258.811 216.264 1.273-.714c.961 1.657.922 2.32.772 4.244 1.172-.991 1.181-.985 1.467-2.587.27 1.307.505 4.551.994 5.048 1.377-.116 1.241-.481 2.538-1.152-.489 1.749-1.001 2.817-1.755 4.479-2.506 5.076-5.337 9.22-8.196 14.079-2.154 3.66-4.055 7.907-5.671 11.835-1.186-2.687 5.874-11.523 4.96-16.078-.746.155-.775.123-1.502.053l-.409-.638.626-1.424c.013-3.017 3.028-6.62 2.706-9.851-.122-1.229-1.776-.988-3.002-1.985l.522-.106.315.022c1.383.599 2.38.253 3.496-.639 2.031-1.4 2.185-2.601.866-4.586" transform="scale(1.83054 1.83114)"/><path fill="#448788" d="m473.764 396.01 2.33-1.308c1.76 3.034 1.688 4.248 1.413 7.772-3.16 6.443-5.125 4.392-6.053 6.804-2.204 5.737-2.898 12.63-6.665 18.127.023-5.525 5.543-12.123 4.953-18.039-.223-2.25-3.25-1.81-5.495-3.635l.955-.194.577.04c2.532 1.097 4.357.464 6.4-1.17 3.717-2.563 4-4.763 1.585-8.397"/><path fill="#46a4a1" d="m483.446 413.072 1.217 2.232c-8.97 17.665-17.324 32.115-24.753 50.659l.469 1.28.046 1.758-2.226.919c7.527.668 11.53 7.169 5.715 12.818l-.266 2.554c-2.244.707-4.75 1.2-6.921.348-2.777-1.091-5.622-3.228-6.628-6.037-2.349-6.544 2.354-9.86 5.832-14.39.501-.651 1.759-3.755 2.13-4.689 2.959-7.192 6.438-14.97 10.381-21.671 5.234-8.898 10.416-16.486 15.004-25.78"/><path fill="#34393b" d="M458.199 469.92c7.527.668 11.53 7.169 5.715 12.818-7.844 3.179-10.138-1.117-12.834-7.627 2.476-2.91 3.818-3.67 7.119-5.191"/><defs><linearGradient id="n" x1="272.389" x2="266.136" y1="228.783" y2="225.687" gradientUnits="userSpaceOnUse"><stop offset="0" stop-color="#2f8f94"/><stop offset="1" stop-color="#46c7c0"/></linearGradient></defs><path fill="url(#n)" d="M272.377 209.471c-1.32-.603-1.691-.547-1.632-2.016 1.427-2.565 4.754-4.349 5.608-5.779l.199.362c.627 2.124 2.876 4.192 2.562 5.228l.541.196-3.329 2.083a330 330 0 0 0 2.122 7.093c-.596 2.417-2.571 6.39-2.756 7.331a425 425 0 0 1-7.751 14.04c-.783 1.362-2.632 4.695-3.519 5.844l-.182-.502c-.49.711-.55.931-.866 1.747l-.53.037c-.14-.359-.215-.581-.331-.942 2.14-4.442 5.546-9.425 8.007-14.541-.36-3.387 5.712-10.181 4.855-14.33-.6-2.905-1.49-2.787-2.22-5.193-.125-.412-.199-.291-.778-.658" transform="scale(1.83054 1.83114)"/><path fill="#494c4d" d="M498.597 383.57c-2.416-1.103-3.096-1-2.988-3.69 2.613-4.698 8.703-7.964 10.266-10.583l.364.663c1.148 3.89 5.265 7.676 4.69 9.573-3.505.586-7.11 1.707-10.544 2.683 3.206 5.196 6.255 11.48 4.571 17.648-1.294 4.737-7.124 16.74-9.758 20.661-.66-6.202 10.456-18.643 8.887-26.24-1.098-5.32-2.728-5.104-4.064-9.51-.229-.754-.364-.532-1.424-1.204"/><path fill="#3ebaba" d="M480.54 447.152c.213.66.35 1.067.606 1.725l.97-.068c.579-1.494.689-1.897 1.586-3.2l.333.92c-6.275 12.985-7.324 18.46-2.134 32.36.216 2.836.789 6.574-1.037 8.905l-.653-.43c-1.355-2.819-1.241-4.956-1.951-7.666-4.394-16.736-5.287-17.015 2.28-32.546"/><path fill="#46a4a1" d="M460.379 467.243c3.2.432 6.672 2.474 8.516 5.094a8.36 8.36 0 0 1 1.228 6.779c-.78 3.256-3.683 4.78-6.475 6.176l.266-2.554c5.815-5.65 1.812-12.15-5.715-12.818l2.226-.92z"/><path fill="#449694" d="m486.658 404.87.923-2.094 3.075 1.188a309 309 0 0 0-5.993 11.34l-1.217-2.232c1.38-3.043 2.317-4.999 3.212-8.201"/><defs><linearGradient id="o" x1="211.028" x2="216.409" y1="177.417" y2="145.609" gradientUnits="userSpaceOnUse"><stop offset="0" stop-color="#32393b"/><stop offset="1" stop-color="#565253"/></linearGradient></defs><path fill="url(#o)" d="M224.658 145.961c1.171-.385.962-.504 2.018-.302 1.904 1.696 2.963 6.056 4.226 8.413 3.129 5.836 6.132 10.688 7.252 17.379-1.081-1.478-2.675-4.523-4.007-6.465.791 3.535-.376 10.498-.586 14.569-.04 1.05.115 1.869-.384 2.631l-.419.215c.833.727.976.8 1.523 1.731 1.492 4.13 1.441 7.403 1.483 11.737-.085 1.665-.326 4.548-.101 6.103-.868-1.088-.909-.927-2.084-.673l.164-1.946c-.896.561-.55.399-1.684.465-2.663-12.383-7.976-19.483-16.215-28.943-.571-.442-1.181-1.065-1.711-1.576-6.832-5.394-15.551-13.852-22.019-19.862 4.787.06 28.323-2.174 32.544-3.476" transform="scale(1.83054 1.83114)"/><path fill="#34393b" d="M406.537 284.325c3.716 13.276-8.182 14.237-3.848 22.693.665 1.92-.124 1.73.015 3.397.273 3.237 4.853 7.04 7.527 8.484 1.035 2.704 4.099 6.53 6.074 8.754 2.072 4.948 5.589 7.343 9.72 10.584 1.931-.108 1.192.1 2.836-1.066 2.73 7.563 2.637 13.556 2.714 21.493-.155 3.048-.596 8.328-.185 11.175-1.588-1.992-1.663-1.697-3.814-1.232l.3-3.564c-1.64 1.028-1.007.73-3.083.852-4.875-22.675-14.6-35.676-29.682-52.999-1.045-.81-2.162-1.95-3.132-2.886 1.816-2.807-.167-10.457-2.876-12.697.707-1.941.183-1.386 1.81-2.221 2.439.774 2.82.75 5.39.615 1.433-1.628 3.509-3.089 5.632-5.592l.877-1.311.648.106c.423 1.262.573 1.584.747 2.928l.547-2.796c.888 1.247.225 1.738.954 3.358l-.265-1.267.51.115c.282-2.283.418-4.625.584-6.923"/><defs><linearGradient id="p" x1="235.674" x2="232.679" y1="192.411" y2="193.078" gradientUnits="userSpaceOnUse"><stop offset="0" stop-color="#327476"/><stop offset="1" stop-color="#438b8a"/></linearGradient></defs><path fill="url(#p)" d="M234.281 184.132c1.492 4.13 1.441 7.403 1.483 11.737-.085 1.665-.326 4.548-.101 6.103-.868-1.088-.909-.927-2.084-.673l.164-1.946c.051-3.087.247-12.112-1.011-14.639 1.055-.059.651.055 1.549-.582" transform="scale(1.83054 1.83114)"/><path fill="#449694" d="M390.914 295.092c2.438.774 2.819.75 5.389.615.613 1.106.801 1.168.972 2.384-3.32 4.001 2.259 10.46-2.164 14.805-1.045-.81-2.162-1.95-3.132-2.886 1.816-2.807-.167-10.457-2.876-12.697.707-1.941.183-1.386 1.81-2.221"/><path fill="#448788" d="m401.935 290.115.877-1.311.648.106c.423 1.262.573 1.584.747 2.928-2.089 3.049-3.238 5.096-6.932 6.253-.17-1.216-.36-1.278-.972-2.384 1.433-1.628 3.509-3.089 5.632-5.592"/><path fill="#34393b" d="M391.845 279.965c7.403-1.156 10.292 2.508 12.91 9.077l-.548 2.796c-.174-1.344-.324-1.666-.747-2.928l-.648-.106-.877 1.31c-2.123 2.504-4.199 3.965-5.632 5.593-2.57.136-2.951.16-5.39-.615-1.627.835-1.103.28-1.81 2.221-.77-.44-2.8-2.868-3.297-3.622-3.53-5.373 1.939-10.99 6.04-13.726"/><path fill="#286a68" d="M391.845 279.965c7.403-1.156 10.292 2.508 12.91 9.077l-.548 2.796c-.174-1.344-.324-1.666-.747-2.928l-.648-.106-.877 1.31c-.803-2.32-1.902-5.573-4.276-6.69a7.32 7.32 0 0 0-5.933-.112c-3.304 1.366-4.924 4.444-4.09 7.929.72.884 3.069 3.285 3.278 3.85-1.628.836-1.104.281-1.81 2.222-.771-.44-2.802-2.868-3.298-3.622-3.53-5.373 1.939-10.99 6.04-13.726"/><path fill="#494c4d" d="M394.348 285.876a2.503 2.503 0 1 1 1.499 4.776 2.503 2.503 0 0 1-1.5-4.776"/><path fill="#56aaa7" d="M415.044 307.811c4.155-.353 4.997-.176 8.503 2.42l-1.741 1.38c1.072 5.052.51 5.932-3.266 9.208.778 1.23.769 1.722 1.853 2.167-2.296 4.605 2.174 8.322 5.68 11.016 1.525 1.331 1.786 1.465 2.788 3.17-1.644 1.166-.905.957-2.836 1.065-4.131-3.24-7.648-5.636-9.72-10.584-1.975-2.225-5.04-6.05-6.074-8.754-1.113-6.076-.812-8.094 4.813-11.088"/><path fill="#3b4142" d="M415.809 322.376c-6.127-3.952-3.236-16.167 5.997-10.765 1.072 5.052.51 5.932-3.266 9.208z"/><path fill="#b8b8b7" d="M411.245 267.275c2.144-.705 1.761-.923 3.694-.553 3.486 3.106 5.424 11.09 7.736 15.405 5.728 10.687 11.225 19.572 13.275 31.824-1.978-2.707-4.896-8.282-7.335-11.839-3.708-8.324-12.865-26.842-17.37-34.837"/><path fill="#1f2e33" d="m391.845 279.965-1.27-.54-.331-.969c8.243-10.51 12.865-3.596 16.293 5.869-.166 2.298-.302 4.64-.584 6.923l-.51-.115.265 1.267c-.729-1.62-.066-2.111-.954-3.358-2.617-6.569-5.506-10.233-12.909-9.077"/><path fill="#494c4d" d="M402.69 307.018c-.68-4.356-.471-5.448 2.685-8.874l-.018 1.103.772-1.537-.833.57 1.025-.571c-.362 1.778-2.498 3.708-3.816 5.066 1.427 3.293 2.577 5.659 6.178 7.087 1.684-.46.988 0 2.037-1.59.505-3.816-2.475-7.194-1.955-9.862l.725.163c1.267 3.884.965 8.225 5.554 9.238-5.625 2.994-5.926 5.012-4.813 11.088-2.674-1.443-7.254-5.247-7.527-8.484-.139-1.666.65-1.478-.015-3.397"/><path fill="#449694" d="M423.547 310.232c2.98 4.415 1.713 10.485-3.154 12.754-1.084-.445-1.075-.938-1.853-2.167 3.777-3.276 4.338-4.156 3.266-9.208z"/><path fill="#3b4142" d="M529.334 275.955c2.712 4.662-3.478 11.637.082 16.641 2.143-3.254 9.11-6.845 12.678-8.647 1.58 3.428 1.593 4.364.875 8.094-3.132 11.818-9.614 28.665-11.61 38.893-.263 2.538-.374 2.872-1.46 5.184-1.7 6.653-3.449 13.523-5.713 20-2.978-1.659-4.09-1.897-7.41-2.785-1.38.846-.624.535-2.49.619-1.998-1.94-1.42-6.257-1.771-9.736a549 549 0 0 1-.822-16.647c-.394-17.504-4.49-17.73 7.296-31.628l.83-.276.118-.374c.365-1.111.21-1.124.972-1.862-.327 2.053-.798 2.928-.717 5.069 3.727-5.508 2.757-10.956 1.439-17.034 3.824-2.232 4.333-2.459 7.703-5.511"/><path fill="#34393b" d="M542.094 283.95c1.58 3.427 1.593 4.363.875 8.093-3.132 11.818-9.614 28.665-11.61 38.893l-.61-.078c-.89-.927-1.648-4.408-2.05-5.85-1.203-4.493-3.056-10.535-2.796-15.018-.573-1.128-.805-.921-2.24-1.611 2.031-1.614 4.06-3.304 6.071-4.95-.543-4.442-.843-6.402-.318-10.833 2.143-3.254 9.11-6.845 12.678-8.647"/><path fill="#448788" d="M542.094 283.95c1.58 3.427 1.593 4.363.875 8.093-.01-1.44.185-3.303-.54-4.45-4.7 2.244-15.224 8.42-8.883 14.543-1.11.334-2.858.784-3.812 1.293-.543-4.442-.843-6.402-.318-10.833 2.143-3.254 9.11-6.845 12.678-8.647"/><path fill="#56aaa7" d="M533.546 302.136c.801 2.157.88 1.405.24 3.22-2.309 2.314-5.079 2.682-7.883 4.634-.573-1.128-.805-.921-2.24-1.611 2.031-1.614 4.06-3.304 6.071-4.95.954-.509 2.702-.96 3.812-1.293"/><path fill="#3ebaba" d="m518.99 295.943.828-.276.12-.374c.364-1.111.21-1.124.971-1.862-.327 2.053-.798 2.928-.717 5.069-1.214 2.287-3.47 4.696-5.362 6.48.33 3.091 1.168 5.636 1.415 8.075.88 8.706 1.487 19.526.132 28.12l.399 12.16c-1.38.846-.624.535-2.49.619-1.998-1.94-1.42-6.257-1.771-9.736a549 549 0 0 1-.822-16.647c-.394-17.504-4.49-17.73 7.296-31.628"/><path fill="#243a3f" d="M516.377 341.174a378 378 0 0 0-1.743-21.03c-.435-4.214-1.944-11.619.196-15.164.33 3.091 1.168 5.636 1.415 8.075.88 8.706 1.487 19.526.132 28.12"/><path fill="#3ebaba" d="M523.663 308.379c1.435.69 1.667.483 2.24 1.611-.26 4.483 1.593 10.525 2.795 15.017-.432 1.212-.552 1.787-.639 3.071l-.794.311-1.01-.655c-1.5-5.31-5.119-14.821-2.592-19.355"/><path fill="#56aaa7" d="m526.255 327.734 1.01.655.794-.311c.087-1.284.207-1.859.64-3.07.402 1.442 1.16 4.923 2.05 5.85l.61.078c-.263 2.538-.374 2.872-1.46 5.184-2.367-2.37-2.693-5.081-3.644-8.386"/><path fill="#243a3f" d="M431.575 358.664c.432-3.152.387-5.476.705-8.239l.875 1.258.469.039c1.021 4.524.144 7.762 3.048 10.386l.476.436c2.745 4.589 6.727 5.195 10.778 8.7-.116 3.321-.291 6.528-.026 9.85.194 7.402 1.252 16.467 2.29 23.87-1.52 1.622-3.619 4.321-5.695 4.743-.747 1.39-.884 1.913-2.22 2.781-2.623 2.273-5.45 4.781-7.734 7.418-1.241 1.432-1.725 4.29-2.748 4.704l-.814-3.384-4.544-46.245c.782-1.787 2.063-1.417 3.87-1.632l-2.257-.544c-1.073-1.582-.639-1.933-.472-4.198 2.15-.465 2.226-.76 3.814 1.232-.411-2.847.03-8.127.185-11.175"/><path fill="#3b4142" d="M430.305 373.35c2.59 1.034 5.153 1.995 7.037 4.18 1.404 10.106 2.063 25.909 4.933 34.958-2.623 2.273-5.45 4.781-7.734 7.418-1.241 1.432-1.725 4.29-2.748 4.704l-.814-3.384-4.544-46.245c.782-1.787 2.063-1.417 3.87-1.632"/><path fill="#46a4a1" d="M440.534 376.695a537 537 0 0 0 3.961 33.012c-.747 1.39-.884 1.913-2.22 2.781-2.87-9.05-3.53-24.852-4.933-34.958 1.248-.09 2.022-.432 3.192-.835"/><path fill="#3ebaba" d="M427.576 368.607c2.15-.465 2.226-.76 3.814 1.232 3.608 2.888 7.13 3.053 9.144 6.856-1.17.403-1.944.745-3.192.835-1.884-2.185-4.447-3.146-7.037-4.18l-2.257-.545c-1.073-1.582-.639-1.933-.472-4.198"/><path fill="#434f50" d="M493.47 323.075c7.999-9.454 11.759 3.64 16.78 4.716l.884-.663.559.443q.284 8.33.822 16.647c-.074 4.475-.048 9.978-2.809 13.861-.838-1.955-2.877-4.652-4.607-5.916l-.754.134-1.13-.943c-.097-1.02-.153-1.698-.371-2.701l-.154-.7c-1.723-3.666-3.066-5.823-6.689-7.82.906-1.211 1.412-1.444 2.644-2.268-1.024-.122-1.46-.73-2.232-1.455-4.35-3.326-3.238-8.361-2.943-13.335"/><path fill="#46a4a1" d="M498.645 337.865c4.188 3.135 8.782 8.74 6.454 14.298l-.754.134-1.13-.943c-.097-1.02-.153-1.698-.371-2.701l-.154-.7c-1.723-3.666-3.066-5.823-6.689-7.82.906-1.211 1.412-1.444 2.644-2.268"/><defs><linearGradient id="q" x1="271.117" x2="274.605" y1="180.348" y2="177.432" gradientUnits="userSpaceOnUse"><stop offset="0" stop-color="#4a666a"/><stop offset="1" stop-color="#4c7f7b"/></linearGradient></defs><path fill="url(#q)" d="M271.787 175.719c4.065.216 5.227 3.309 2.591 6.397-3.538.512-5.692-3.386-2.591-6.397" transform="scale(1.83054 1.83114)"/><path fill="#3b4142" d="M505.099 352.163c1.73 1.264 3.77 3.96 4.607 5.916-2.09 4.68-2.738 6.27-3.83 11.218-1.564 2.619-7.654 5.885-10.267 10.582-.108 2.69.572 2.588 2.988 3.692-4.379-.518-3.798-2.787-7.69-2.83-.513 5.476.122 7.58 2.596 12.577 1.407 2.844 1.581 3.474.46 6.398-.482.38-1.108.914-1.612 1.23.762-9.278-4.584-13.264-2.246-25.255 4.194-1.908 7.688-8.714 9.27-12.805.608-3.023.635-4.653-.513-7.486l1.055-1.186c2.103-.557 2.707-.626 4.428-1.917z"/><path fill="#46a4a1" d="M518.99 295.943c-.037-1.272 1.555-6.843 1.06-8.877-1.58-5.15-6.844-6.927-7.962-12.81-1.058-5.58 4.078-8.17 8.704-9.266 1.842-.436 5.68 3.235 7.11 4.514.43 2.56.688 3.933 1.432 6.45-3.37 3.053-3.88 3.28-7.703 5.512 1.318 6.078 2.288 11.526-1.44 17.034-.08-2.141.39-3.016.718-5.069-.761.738-.607.75-.972 1.862l-.119.374z"/><path fill="#34393b" d="M520.487 267.41c7.768 3.187 5.84 8.717-.454 12.216-8.478-2.056-5.584-8.775.454-12.215"/><path fill="#46a4a1" d="M461.993 425.313c3.248-3.028 8.353-13.206 6.158-17.348-1.843.123-5.06-1.09-5.707-2.789l1.803.555c2.244 1.826 5.272 1.385 5.495 3.635.59 5.916-4.93 12.514-4.953 18.039l-1.146 2.607c-2.277 3.379-20.109 31.347-20.665 32.847-.194 3.91-4.25 6.123-3.162 11.366 1.024-.39 1.373-1.04 2.056-1.912.579 1.337.454.6-.055 2.317-1.801 2.018-2.833 2.69-5.537 2.854-.632-3.138-.974-7.438-1.247-10.639l.403-3.55.518.053c.21 1.366.14 1.296 1.075 2.3 1.288-2.091 1.75-3.58 3.747-4.22 2.883-3.083 10.188-17.358 12.519-21.606 2.804-5.11 5.497-9.48 8.698-14.509"/><path fill="#1f2e33" d="m435.033 466.845.403-3.55.518.053c.21 1.366.14 1.296 1.075 2.3 1.288-2.091 1.75-3.58 3.747-4.22-2.997 5.374-4.035 6.595-5.062 12.78 2.332-3.984 4.384-7.729 7.264-11.349-.194 3.91-4.25 6.123-3.162 11.366 1.024-.39 1.373-1.04 2.056-1.912.579 1.337.454.6-.055 2.317-1.801 2.018-2.833 2.69-5.537 2.854-.632-3.138-.974-7.438-1.247-10.639"/><path fill="#46a4a1" d="m447.9 381.093.714.617c.862-1.305-.47-5.907.227-8.963l.758-.469c.17 2.824.33 4.541.805 7.321l.306-5.07c.873 6.209 2.21 25.066 1.783 30.917-2.901 3.257-6.1 6.238-8.853 9.51-2.9 3.449-8.843 15.203-11.8 17.623-.598-3.735-.686-7.568-.861-11.353l.814 3.384c1.023-.414 1.507-3.272 2.748-4.704 2.284-2.637 5.11-5.145 7.734-7.418 1.336-.868 1.473-1.392 2.22-2.781 2.076-.422 4.176-3.12 5.695-4.743-1.038-7.403-2.096-16.468-2.29-23.87"/><path fill="#c0bfbe" d="M442.53 328.047c3.662 1.727 3.913 5.988 6.28 9.324.55-1.663-1.382-6.085-2.35-7.555l.29-.658c1.377.932 1.311 3.505 2.382 4.529 6.328 6.052 9.177 14.354 12.365 22.338 1.036 2.595 1.75 10.441 5.058 11.249-1.398 1.584-.87 1.455-2.592 1.911-4.406-2.35-18.55-35.092-21.434-41.138"/><path fill="#3b4142" d="m482.693 374.953.85-.207c.236.903 1.779 7.34 1.975 7.77 1.39 6.986 4.014 13.728 2.063 20.26l-.923 2.095c-2.374 1.228-2.125 1.897-4.646 2.109-.895-.91-1.325-6.85-1.82-9.244-.07-2.336.625-4.317.478-6.344-.07-1.914-1.069-7.28-.435-8.986 1.309-3.52 3.837-2.276 2.458-7.453"/><path fill="#34393b" d="M496.032 352.44c-7.75-3.088-8.116-11.958-.03-12.308 3.622 1.998 4.965 4.155 6.688 7.821l.154.7c.218 1.003.274 1.68.371 2.7l1.13.944c-1.72 1.29-2.325 1.36-4.428 1.917l-1.055 1.186c-1.283-2.583-.496-1.858-2.83-2.96"/><path fill="#449694" d="m502.69 347.953.154.7c.218 1.003.274 1.68.371 2.7l1.13.944c-1.72 1.29-2.325 1.36-4.428 1.917l-1.055 1.186c-1.283-2.583-.496-1.858-2.83-2.96 4-.568 5.402-.57 6.658-4.487"/><path fill="#1f2e33" d="M477.992 376.175c.949-1.33 3.13-1.099 4.701-1.222 1.379 5.177-1.15 3.934-2.458 7.453-.634 1.707.364 7.072.435 8.986.147 2.027-.549 4.008-.477 6.344-.524 2.934-.54 2.923-2.686 4.738.275-3.524.346-4.738-1.413-7.772-.741-1.15-2.206-2.236-3.286-3.146 8.227-3.554 1.9-7.989 1.003-12.847l.687-.811c1.228.166 1.704.33 2.903-.046z"/><path fill="#314646" d="M427.543 328.79c.558 2.833.055 2.401 1.803 4.276 1.691.498 2.544.641 4.336.64 2.56 9.581 1.404 18.74 3.149 26.565l.317 2.273-.476-.436c-2.904-2.624-2.027-5.862-3.048-10.386l-.469-.039-.875-1.258c-.318 2.763-.273 5.087-.705 8.239-.077-7.937.017-13.93-2.714-21.493-1.002-1.704-1.263-1.838-2.788-3.17l.767-.393c.913-1.395.63-2.895.703-4.818"/><path fill="#34393b" d="M465.202 405.537c-7.201-7.376-.292-12.931 8.562-9.527 2.414 3.634 2.132 5.834-1.585 8.397-2.043 1.634-3.868 2.267-6.4 1.17z"/><path fill="#494c4d" d="m465.779 405.577.904-.382c.577-2.709 2.195-5.611 4.392-7.296l.963.288c1.012 2.115.258 3.801.14 6.22-2.042 1.634-3.867 2.267-6.399 1.17"/><path fill="#2f7f7d" d="M462.581 392.994c4.007-1.602 6.013-1.564 10.227-1.438 1.08.91 2.545 1.996 3.286 3.146l-2.33 1.308c-8.854-3.404-15.763 2.151-8.562 9.527l-.955.194-1.803-.555c.648 1.7 3.864 2.912 5.707 2.79 2.195 4.141-2.91 14.319-6.158 17.347 2.397-5.141 4.275-10.395 6.083-15.766-9.515-3.517-11.77-8.207-5.495-16.553"/><path fill="#3b4142" d="m477.178 376.138.814.037-.59 1.677c-1.2.375-1.676.212-2.904.046l-.687.811c.897 4.858 7.224 9.293-1.003 12.847-4.214-.126-6.22-.164-10.227 1.438 1.314-2.917 5.138-3.256 7.773-4.933.578-2.328-.647-2.928-1.102-5.195-.782-3.89 4.858-6.263 7.926-6.728"/><path fill="#56aaa7" d="m486.991 374.675.701.68c-.505 3.087-1.156 7.238-.283 10.268l.437.33c.216-2.957.282-7.365 1.062-10.033l.88-.403.317.174c-2.338 11.99 3.008 15.977 2.246 25.255-.836 1.27-1.049 1.643-1.695 3.018l-3.075-1.188c1.951-6.532-.672-13.274-2.063-20.26.088-2.844-.22-5.753 1.473-7.841"/><path fill="#46a4a1" d="M493.043 353.71c1.65-.782.983-.6 3.024-.26 2.35 2.181 2.726 6.276 3.308 9.436-1.582 4.09-5.076 10.897-9.27 12.805l-.317-.174-.88.403c-.78 2.668-.846 7.076-1.062 10.033l-.437-.33c-.873-3.03-.222-7.181.283-10.269l-.7-.679c5.044-7.006 9.56-4.733 8.747-15.953-.93-2.487-1.08-2.858-2.696-5.012"/><path fill="#2e4a5c" d="M495.74 358.722c.812 11.22-3.704 8.947-8.749 15.953-1.693 2.088-1.385 4.997-1.473 7.841-.196-.43-1.74-6.867-1.975-7.77l-.85.207c-1.57.123-3.752-.108-4.7 1.222l-.815-.037c.403-1.33.549-1.412.186-2.776-1.99-.112-3.355 1.5-5.109 2.94l.12-1.127c2.738-3.419 7.452-3.754 10.974-5.856.52-.31.607-3.17.72-4.138 1.63.556-.459 3.847 1.797 6.13 6.586 1.077 8.283-7.66 9.873-12.589"/><path fill="#449694" d="M493.043 353.71c-7.983-1.628-8.616-16.031 3.37-17.3.773.725 1.208 1.333 2.232 1.455-1.232.824-1.738 1.057-2.644 2.267-8.085.35-7.72 9.22.031 12.308 2.334 1.102 1.547.377 2.83 2.96 1.148 2.833 1.12 4.463.513 7.486-.582-3.16-.957-7.255-3.308-9.436-2.04-.34-1.375-.522-3.024.26"/><path fill="#3ebaba" d="m436.83 360.271.404-4.979c.307 2.017.56 3.989 1.063 5.964.917-.043.465.054 1.35-.31 4.72 5.143 11.242 4.819 11.063 13.583l-.306 5.07c-.476-2.78-.635-4.497-.805-7.32l-.758.468c-.697 3.056.635 7.658-.227 8.963l-.714-.617c-.265-3.321-.09-6.528.026-9.85-4.051-3.504-8.033-4.11-10.778-8.7z"/><path fill="#449694" d="M433.682 333.705c.714.181 2.473.458 2.583.92 1.424 5.938 3.125 20.748 3.381 26.32-.884.365-.432.268-1.349.311-.503-1.975-.756-3.947-1.063-5.964l-.403 4.98c-1.745-7.825-.59-16.985-3.149-26.567"/><path fill="#c0bfbe" d="M527.803 255.466c4.403 3.102 10.194 16.808 10.943 22.22-2.903-4.637-10.725-17.058-10.943-22.22"/><path fill="#40ede9" d="m636.933 70.203.975.09c5.2 14.353 13.005 27.515 18.346 42.658 1.355 3.207 4.897 10.721 5.492 13.493l-.396.942c-1.572-.065-2.046-.618-3.322-1.552-5.527-3.479-12.038-5.713-17.293-9.198-4.63 11.03-7.36 23.366-10.572 34.95l-15.049 53.52c-5.03 17.566-41.943 136.081-41.022 140.19-3.227 6.362-4.218 14.166-6.423 20.632-.67 2.873-1.243 4.77-2.188 7.571a2113 2113 0 0 0-7.373 24.768c-.914 3.207-4.124 15.2-5.314 17.46-1.595 2.797-3.387 13.388-4.555 17.22-5.416 17.766-9.132 35.301-14.734 53.089-8.206.461-24.868 2.302-31.862 2.146.807-2.794 3.438-12.179 4.673-14.37 4.3-13.762 6.54-26.248 11.606-40.436.476-5.239 6.683-23.964 8.301-29.754l21.947-78.272 39.794-139.724 11.574-39.112c3.934-13.63 6.991-26.348 12.717-39.394-8.893-.103-17.564.179-26.56-.037l.361-.3c7.788-6.294 16.818-10.27 24.923-16.831 7.692-6.228 17.643-14.896 25.954-19.75"/><path fill="#3ebaba" d="M517.922 433.376c1.117 2.245-2.82 12.355-3.736 15.86 1.98 2.937 5.383 4.206 5.982 5.559-1.408 4.69-8.658 1.223-9.587 7.017-.338 2.116-2.646 11.525-3.796 12.499l-.469-.5c4.3-13.76 6.54-26.247 11.606-40.435"/><path fill="#448788" d="m636.933 70.203.975.09c5.2 14.353 13.005 27.515 18.346 42.658l-1.545.459c-3.132-11.517-9.738-23.145-14.688-33.956-1.276-2.787-3.354-6.156-3.088-9.251"/><path fill="#3ebaba" d="M656.254 112.95c1.355 3.208 4.897 10.722 5.492 13.494l-.396.942c-1.572-.065-2.046-.618-3.322-1.552-1.364-3.503-2.424-8.656-3.319-12.424z"/><defs><linearGradient id="r" x1="316.855" x2="354.37" y1="257.557" y2="155.859" gradientUnits="userSpaceOnUse"><stop offset="0" stop-color="#2e3436"/><stop offset="1" stop-color="#5d5d5e"/></linearGradient></defs><path fill="url(#r)" d="M331.604 179.251c1.06-3.934 6.086-31.196 6.868-32.217l.296.257c3.107.742 7.014 5.949 9.763 8.021.969.73 5.938 4.597 6.229 5.118 1.749 1.303 7.727 7.229 8.261 9.116l-.25 1.129.977.611c.301 1.792-4.213 23.172-4.879 26.057-.272 1.431-.616 2.771-.542 4.216.325 1.028-.18 2.148-.507 3.253-1.373 7.709-3.59 15.931-4.79 23.23-.446 2.586-.843 4.33-1.508 6.86a158 158 0 0 0-1.161 5.312c-.017 1.167-.158 1.313-.67 2.407-.767 2.321-3.655 13.909-4.094 16.277-6.339 1.413-14.756 1.291-21.52 2.269l-1.077.148c-.991-.458-.896-.675-1.552-1.698-1.32-2.444-2.605-4.958-3.894-7.423l-.826-1.318c-1.482-2.304-2.626-4.397-3.938-6.797l-.917-1.469c-3.463-5.521-4.748-11.689-9.889-15.578.65-1.234 2.404-7.784 2.903-9.535q1.973-6.776 4.028-13.526c.516-1.53.829-2.566 1.195-4.135 1.205-3.531 1.746-7.793 3.509-11.267.593 1.97 1.059 2.661 2.127 4.453.552-.122.955-.373 1.396-.027 2.974 2.33 6.399 8.411 6.245 12.082.929.577.695.643 1.527.52 2.131-2.463 5.468-21.489 6.69-26.346" transform="scale(1.83054 1.83114)"/><path fill="#3b4142" d="M567.669 365.928c.196 3.536 2.01 7.694 2.645 11.594.465 4.42 1.838 30.212 2.628 32.348 3.473 1.72 4.721 2.393 6.909 5.813.443 2.901.613 3.608.242 6.556 2.101 1.018 1.87.513 2.846 2.2.189 2.735-.558 4.044-.939 6.763-2.61 4.699-6.698 9.925-11.104 13.05-6.34-10.109-8.691-21.403-18.102-28.525 1.19-2.26 4.4-14.253 5.314-17.46a2113 2113 0 0 1 7.373-24.768c.945-2.801 1.518-4.698 2.188-7.571"/><path fill="#34393b" d="M572.942 409.87c3.473 1.72 4.721 2.393 6.909 5.813.443 2.901.613 3.608.242 6.556-4.123 4.468-6.433 6.592-12.774 4.442.051-.306.335-.934.463-1.254l1.95-.313c-5.245-1.857-3.901-8.958-1.935-12.838l3.331.287c.262-1.197.929-1.66 1.814-2.693"/><path fill="#449694" d="M572.942 409.87c3.473 1.72 4.721 2.393 6.909 5.813.443 2.901.613 3.608.242 6.556-4.123 4.468-6.433 6.592-12.774 4.442.051-.306.335-.934.463-1.254l1.95-.313c3.72.064 9.085-2.265 7.695-6.774-1.016-3.301-3.52-4.167-6.299-5.777.262-1.197.929-1.66 1.814-2.693"/><path fill="#449694" d="M567.669 365.928c.196 3.536 2.01 7.694 2.645 11.594.465 4.42 1.838 30.212 2.628 32.348-.885 1.032-1.552 1.496-1.814 2.693l-3.331-.287-.368-1.804c1.22-.694.749-.222 1.419-1.514-.25-6.096-.43-32.227-3.367-35.459.945-2.801 1.518-4.698 2.188-7.571"/><path fill="#2f7f7d" d="m567.429 410.472.368 1.804c-1.966 3.88-3.31 10.981 1.935 12.838l-1.95.313c-.128.32-.412.948-.463 1.254-6.599-3.744-6.868-12.792.11-16.209"/><path fill="#3b4142" d="M586.476 398.209c2.193 1.91 2.908 1.985 5.687 2.737.932 1.255.888 1.357 1.347 2.793.733 7.714.718 14.191 2.46 21.829 4.784 12.356 4.943 14.821 4.903 28.13-2.914 1.518-3.71 1.879-6.663 2.87-3.31 1.109-12.362 1.462-14.427 2.821-2.713-4.219-4.807-8.051-7.208-12.446l-1.68-2.69c4.407-3.126 8.495-8.352 11.105-13.05 1.615-2.705 1.788-3.507 2.656-6.554 1.424.99 1.44.899 2.16 2.426.844-6.396-1.146-15.894-1.444-23.025.168-2.53.456-3.466 1.104-5.841"/><path fill="#3ebaba" d="M584.656 424.649c1.424.99 1.44.899 2.16 2.426-2.27 8.344-6.885 15.087-14.241 19.868l-1.68-2.69c4.407-3.126 8.495-8.352 11.105-13.05 1.615-2.705 1.788-3.507 2.656-6.554"/><path fill="#686868" d="M649.402 293.77c3.202 2.386 14.145 13.237 15.122 16.692l-.457 2.068 1.788 1.119c.551 3.281-7.712 42.43-8.931 47.714-.362-7.32-4.188-4.758 1.03-12.9-2.526-7.139-2.392-7.35-9.762-9.048-1-11.678 1.83-18.925.066-32.705.141-1.47.903-3.226 1.426-4.65.216-.42.619-2.218.762-2.788l3.082 2.857c-1.38-2.972-2.562-5.473-4.126-8.36"/><path fill="#c0bfbe" d="M649.402 293.77c3.202 2.386 14.145 13.237 15.122 16.692l-.457 2.068c-2.991-1.646-8.298-7.746-10.539-10.401-1.38-2.972-2.562-5.473-4.126-8.36"/><path fill="#494c4d" d="m652.591 373.62 1.77.06.643 1.36c-2.514 14.116-6.572 29.171-8.769 42.537-.807.745-1.239.824-2.26 1.24-1.855-.392-2.133-1.125-3.678-2.564-1.693-.41-.873-.494-2.517.454l-1.1.044c-.425-3.247-.642-4.012-1.754-7.103-1.049-3.56-2.47-7.592-1.923-11.223.263-.192 17.946-22.8 19.588-24.805"/><defs><linearGradient id="s" x1="311.463" x2="318.403" y1="222.769" y2="211.021" gradientUnits="userSpaceOnUse"><stop offset="0" stop-color="#283336"/><stop offset="1" stop-color="#474e4d"/></linearGradient></defs><path fill="url(#s)" d="m311.555 206.168.655-.631c.78.902-.135.962.815 1.947.753 1.072 2.7 1.317 4.258 1.821.212 2.932.813 7.746.85 10.388-.077 2.072.311 6.005-1.368 7.315-1.195-1.868-1.877-2.235-3.774-3.175-.432-1.166-1.182-15.251-1.436-17.665" transform="scale(1.83054 1.83114)"/><path fill="#46a4a1" d="m639.602 333.423 2.357.961c-.078.57-.23 1.605-.637 2.048-12.607 13.735-22.33 29.316-34.286 43.61q.99 10.673 2.104 21.333c.221 2.305.995 8.831-.48 10.62-4.351-3.92-4.564-26.672-4.461-32.832 1.574-2.536 8.98-11.432 11.225-14.307 6.685-8.556 16.707-24.66 24.178-31.433"/><path fill="#46a4a1" d="M636.213 305.683c5.232-.013 7.67 1.37 11.522 4.908.525 6.744-3.47 8.454-6.021 13.556-.976.727-1.329 1.142-2.544 1.232-1.05-1.328-4.434-2.906-6.237-4.7-6.361-6.335-3.742-10.257 3.28-14.996"/><path fill="#34393b" d="M639.093 320.973c-12.55-1.562-5.254-18.688 4.92-10.029 1.703 4.479-2.006 7.195-4.92 10.03"/><path fill="#494c4d" d="M644.013 310.944c1.703 4.479-2.006 7.195-4.92 10.03l-.8-2.174c1.6-1.416 2.667-2.145 3.222-4.131-.348-2.174-.189-1.456-1.772-3.36 2.376.503 2.518.626 4.27-.365"/><path fill="#686868" d="M639.743 311.308c1.583 1.905 1.424 1.187 1.772 3.36-.555 1.987-1.622 2.716-3.222 4.132-.787-1.941-1.443-3.097-1.417-5.19 1.085-1.882.577-1.256 2.867-2.302"/><path fill="#46a4a1" d="M580.8 383.267c-.347-2.774-1.81-11.104-.006-13.241 1.664.994 1.215.934 2.189 3.11-.216 2.04.124 7.977.769 9.801 2.002 3.038 1.063 3.966 2.072 6.67l-.253-2.253c1.465 5.092 1.252 5.508.905 10.855-.648 2.375-.936 3.31-1.104 5.841.298 7.13 2.288 16.629 1.444 23.025-.72-1.527-.736-1.436-2.16-2.426-.868 3.047-1.041 3.849-2.656 6.553.38-2.719 1.128-4.028.94-6.764-.977-1.686-.746-1.181-2.847-2.2.371-2.947.2-3.654-.242-6.555 3.073-2.398 2.363-9.6 2.504-13.394-.068-4.838-1.168-13.653-1.556-19.022"/><path fill="#243a3f" d="M582.355 402.289a579 579 0 0 1 2.301 22.36c-.868 3.047-1.041 3.849-2.656 6.553.38-2.719 1.128-4.028.94-6.764-.977-1.686-.746-1.181-2.847-2.2.371-2.947.2-3.654-.242-6.555 3.073-2.398 2.363-9.6 2.504-13.394"/><path fill="#314646" d="M583.752 382.937c2.002 3.038 1.063 3.966 2.072 6.67l-.253-2.253c1.465 5.092 1.252 5.508.905 10.855-.648 2.375-.936 3.31-1.104 5.841-.804-3.83-1.344-16.544-1.62-21.113"/><path fill="#34393b" d="M634.926 409.648c1.112 3.091 1.33 3.856 1.754 7.103l1.1-.044c1.644-.948.824-.864 2.517-.454 1.545 1.44 1.823 2.172 3.678 2.564 1.021-.416 1.453-.495 2.26-1.24-.816 4.735-1.543 7.929-2.76 12.561a290 290 0 0 0-2.125 9.727c-6.819-.668-7.169-7.806-6.93-12.964.142-3.329-.017-3.968-1.504-6.966l-.03-5.193c2.507-1.252 1.978-2.686 2.04-5.094"/><path fill="#3f6e84" d="M637.78 416.707c1.644-.948.824-.864 2.517-.454 1.545 1.44 1.823 2.172 3.678 2.564 1.021-.416 1.453-.495 2.26-1.24-.816 4.735-1.543 7.929-2.76 12.561-.234-4.78-1.4-10.562-5.695-13.431"/><path fill="#448788" d="M634.926 409.648c1.112 3.091 1.33 3.856 1.754 7.103-.624 3.613-1.06 6.649-2.26 10.15.142-3.329-.017-3.968-1.504-6.966l-.03-5.193c2.507-1.252 1.978-2.686 2.04-5.094"/><path fill="#2f7f7d" d="M597.668 420.834c5.588 13.884 7.131 18.925 7.454 34.098-8.229 4.267-14.855 5.173-23.827 6.87l-1.512-2.413c2.065-1.359 11.117-1.712 14.427-2.822 2.952-.99 3.749-1.351 6.663-2.87.04-13.308-.12-15.773-4.902-28.13.358.138 1.052.244 1.459.323.898-1.602.4-2.902.238-5.056"/><defs><linearGradient id="t" x1="334.286" x2="340.379" y1="155.934" y2="154.327" gradientUnits="userSpaceOnUse"><stop offset="0" stop-color="#323337"/><stop offset="1" stop-color="#4e4d4c"/></linearGradient></defs><path fill="url(#t)" d="M331.604 179.251c1.06-3.934 6.086-31.196 6.868-32.217l.296.257c.501.715 1.033 1.517 1.573 2.192-2.095 6.977-4.21 13.421-5.055 20.663-.259 2.217-1.034 4.552-1.548 6.749l-.214-.118.047-.195c.419-1.815 2.562-12.96 2.393-14.155-.285.362-3.561 16.052-4.036 18.019z" transform="scale(1.83054 1.83114)"/><defs><linearGradient id="u" x1="325.92" x2="333.755" y1="261.205" y2="247.044" gradientUnits="userSpaceOnUse"><stop offset="0" stop-color="#3d7a82"/><stop offset="1" stop-color="#32bcab"/></linearGradient></defs><path fill="url(#u)" d="M336.114 250.058q.01-.41.031-.819c.079-1.316.138-1.123 1.01-1.883.577 1.468 1.064 2.27.315 3.712-1.358 2.611-3.399 4.395-5.154 6.91-2.413-2.761-4.817-3.613-7.88-.641-.703.682-1.734 2.486-1.726 3.479.551.177.789.274 1.367.351l-1.077.148c-.991-.458-.896-.675-1.552-1.698 3.207-6.066 4.144-6.914 10.823-4.697 1.556-1.708 2.525-2.981 3.843-4.862" transform="scale(1.83054 1.83114)"/><path fill="#449694" d="M593.51 403.739c-.027-5.2-3.115-19.729-2.101-21.56 6.89 4.66 5.376 31.009 6.259 38.655.163 2.154.66 3.454-.238 5.056-.407-.079-1.1-.185-1.46-.322-1.742-7.638-1.727-14.115-2.46-21.83"/><path fill="#b8b8b7" d="M620.128 269.71c5.688 1.36 12.84 10.894 17.872 14.688 1.774 1.337 10.87 8.418 11.402 9.372 1.564 2.886 2.746 5.387 4.126 8.359l-3.082-2.857a176.4 176.4 0 0 1-27.438-25.548c-.989-1.236-1.963-2.704-2.88-4.014"/><path fill="#46a4a1" d="M615.27 457.891c-1.294-5.502-8.305-25.537-4.944-29.379 1.402-.483.717-.503 2.114.132 1.46 2.32.723 6.254 1.402 9.594 1.007 4.966 2.158 9.787 3.334 14.705-1.597 1.392-1.705 1.039-1.85 3.449q-.037.75-.056 1.5"/><path fill="#448788" d="M630.927 396.453c3.555-5.356 14.867-19.826 19.471-24.114 1.155 1.26.467.816 2.193 1.281-1.642 2.005-19.325 24.613-19.588 24.805-.484-1.302-.6-1.022-2.076-1.972"/><path fill="#449694" d="M632.916 419.935c1.487 2.998 1.646 3.637 1.503 6.966-.238 5.158.112 12.296 6.93 12.964-.03 2.137-.288 2.405-1.226 4.408-1.797-1.749-3.804-2.538-5.81-5.05-4.391-5.5-2.358-12.578-1.397-19.288"/><path fill="#c0bfbe" d="M577.986 353.45c1.01-.223 1.748-.683 2.555-.05 5.444 4.267 11.714 15.403 11.432 22.125-1.845-2.071-3.575-5.85-5.095-8.255-2.923-4.633-5.907-9.227-8.892-13.82"/><path fill="#494c4d" d="m573.005 379.932.344-1-.383-.128.958-.712 1.988.654c2.855-1.65-.063-6.354 3.298-10.112 1.862-.192 1.32-.095 3.308 1.099 1.056 2.159.976 1.254.465 3.402-.974-2.175-.525-2.115-2.19-3.11-1.802 2.138-.34 10.468.006 13.242-2.852-.923-6.416-1.372-7.794-3.335"/><path fill="#46a4a1" d="M630.927 396.453c1.475.95 1.592.67 2.076 1.972-.548 3.631.874 7.663 1.923 11.223-.062 2.408.467 3.842-2.04 5.094-1.247-6.77-4.608-12.343-1.96-18.29"/><path fill="#314646" d="m636.213 305.683.132-.43c2.1-1.368 4.441-1.634 6.914-2.128 1.618 1.79 2.407 2.873 4.597 3.986l-.121 3.48c-3.852-3.538-6.29-4.92-11.522-4.908"/><path fill="#449694" d="M639.17 325.379c1.215-.09 1.568-.505 2.544-1.232-.04 2.78-.481 7.905.245 10.237l-2.357-.96c-.804-3.057-1.549-5.013-.432-8.045"/><path fill="#434f50" d="M643.259 303.125c2.627-1.507 3.63-2.736 6.425-1.066-.523 1.425-1.285 3.181-1.426 4.651l-.402.401c-2.19-1.113-2.979-2.197-4.597-3.986"/><path fill="#56aaa7" d="M655.932 369.083c.595 1.882-.33 3.933-.928 5.956l-.643-1.358-1.77-.06c-1.726-.466-1.038-.023-2.193-1.282q.286-.391.582-.771c1.714-2.157 2.131-2.13 4.952-2.485"/><path fill="#46a4a1" d="M618.049 384.7c.644.99.593 1.143 1.62 1.65-1.327 5.847 4.605 51.776 5.537 60.987.3 2.959 2.698 13.04 2.277 15.154l-.763.233c-4.119-2.58-9.211-64.894-10.253-74.484-.122-1.14.903-2.618 1.582-3.54"/><defs><linearGradient id="v" x1="345.159" x2="347.89" y1="197.556" y2="200.379" gradientUnits="userSpaceOnUse"><stop offset="0" stop-color="#4a9798"/><stop offset="1" stop-color="#45b2b9"/></linearGradient></defs><path fill="url(#v)" d="M337.632 210.088c2.188-3.593 14.607-21.801 18.049-22.641.196.226.435.39.291.595-3.898 5.571-14.527 17.546-17.455 22.947-.561-.277-.533-.361-.885-.901" transform="scale(1.83054 1.83114)"/><path fill="#46a4a1" d="M610.016 416.995c-1.244-.354-1.475-.314-2.738-.363-1.81 1.192-2.568 1.91-4.703 1.212.084-4.841 5.336-5.6 9.12-2.576.954 1.864 1.406 2.37 1.417 4.382-.947 1.778-.277 1.126-2.081 2.025-1.787-.632-1.04-.108-2.212-1.758.308-1.375.553-1.716 1.197-2.922"/><defs><linearGradient id="w" x1="271.772" x2="273.55" y1="386.069" y2="398.479" gradientUnits="userSpaceOnUse"><stop offset="0" stop-color="#37646b"/><stop offset="1" stop-color="#30688c"/></linearGradient></defs><path fill="url(#w)" d="M446.515 371.482c.738-.248 6.713-.925 7.747-1.074 9.448-1.355 18.697-2.127 28.21-2.739 5.935-.382 12.02-1.37 18.027-1.659.184 1.342.215 2.762.275 4.119-1.355.237-2.733.289-4.108.379-1.458.443-7.736 1.018-9.593 1.264-10.307 1.365-20.735 2.158-31.086 3.232l-27.85 3.07c-2.865.298-8.914 1.09-11.67 1.13-9.561 1.438-20.395 1.999-30.088 3.086-4.342.486-8.656 1.091-12.997 1.557l-27.623 2.826a8337 8337 0 0 1-130.122 14.291 2495 2495 0 0 0-49.328 5.307c-8.133.908-16.848 1.474-24.86 2.92-.319-1.609-.698-3.34-.969-4.945 2.742-.216 7.197-.788 9.686-.848 2.59-.255 5.224-.551 7.821-.668 4.038-.575 9.294-.981 13.439-1.446q11.507-1.365 23.03-2.575c5.774-.868 12.304-1.378 18.174-2.061 18.642-2.169 37.236-3.494 55.869-5.865 2.465-.583 11.898-1.445 14.834-1.782l31.909-3.665 42.277-4.551c6.376-.68 12.83-1.723 19.214-2.185 23.352-1.691 46.486-4.758 69.782-7.118" transform="scale(1.83054 1.83114)"/><path fill="#3f6e84" d="M817.364 680.236c1.35-.455 12.288-1.694 14.18-1.967 17.296-2.481 34.226-3.895 51.64-5.016 10.864-.7 22.003-2.508 33-3.037.336 2.457.393 5.057.503 7.542-2.48.434-5.003.53-7.52.694-2.669.811-14.161 1.864-17.56 2.315-18.868 2.5-37.957 3.951-56.905 5.918l-50.98 5.621c-5.245.546-16.318 1.996-21.363 2.07-8.912-1.161-13.703 2.05-22.338-.608.712-.636 4.137-1.028 5.611-1.436l-1.305-.383c4.94-.705 10.157-.55 15.078-1.197 8.325-1.097 16.71-1.965 25.042-2.925 10.705-1.234 20.531-3.336 31.35-4.054l2.39-.864c-.845-.498-8.935.205-10.588.302l-.18-.386c2.154-1.123 7.587-.819 10.878-1.987z"/><path fill="#243a3f" d="M817.364 680.236c1.35-.455 12.288-1.694 14.18-1.967 17.296-2.481 34.226-3.895 51.64-5.016 10.864-.7 22.003-2.508 33-3.037.336 2.457.393 5.057.503 7.542-2.48.434-5.003.53-7.52.694l-.57-.476c2.113-.434 5.919-.874 7.193-2.232l-.33-.663c-10.697 1.298-19.746.51-31.485 1.716l-47.052 4.764c-6.233.623-15.153 2.093-21.126 2.212l2.39-.864c-.845-.498-8.935.205-10.588.302l-.18-.386c2.154-1.123 7.587-.819 10.878-1.987z"/><path fill="#1f2e33" d="m577.063 705.604 77.39-8.333c11.671-1.246 23.486-3.155 35.172-4.001 42.747-3.097 85.094-8.713 127.739-13.034l.933.602c-3.291 1.168-8.724.864-10.879 1.987l.181.386c1.653-.097 9.743-.8 10.588-.302l-2.39.864c-10.819.718-20.645 2.82-31.35 4.054-8.331.96-16.717 1.828-25.042 2.925-4.92.646-10.138.492-15.078 1.197a1202 1202 0 0 0-71.939 7.512c-12.36 1.582-23.985 3.085-36.413 3.916-6.518.436-11.464 1.747-18.36 1.497-5.334-1.16-26.684 2.19-33.444 3.517-4.717.929-8.175-.038-12.894-.813 2.84-.357 3.622-.181 5.786-1.974"/><path fill="#2e4a5c" d="M577.063 705.604c-2.164 1.793-2.945 1.617-5.786 1.974 4.719.775 8.177 1.742 12.894.813 6.76-1.327 28.11-4.677 33.444-3.517-4.013 1.474-13.744 2.635-18.432 3.167-7.677.923-15.26 2.81-22.94 3.611-10.584 1.106-22.545.18-32.963 1.687-15.162 2.192-29.372 4.911-44.844 4.821-4.37-.025-10.282 1.548-14.55 1.306 4.579-1.937 7.312-1.454 11.176-2.96-.943-.843-2.103-.732-3.564-.928 4.512-1.067 21.78-2.646 27.154-3.263z"/><path fill="#070708" d="M355.96 730.092c10.569-1.59 22.522-2.523 33.268-3.774 34.125-3.972 68.162-6.398 102.27-10.74 1.46.196 2.621.085 3.564.929-3.864 1.505-6.597 1.022-11.175 2.959-10.476.915-19.743 2.327-30.025 3.459L388 730.015c-8.43.95-16.907 1.18-25.07 2.111-3.686-.15-3.91.19-6.97-2.034"/><defs><linearGradient id="x" x1="176.676" x2="176.916" y1="400.462" y2="402.177" gradientUnits="userSpaceOnUse"><stop offset="0" stop-color="#0c2a2b"/><stop offset="1" stop-color="#0a2532"/></linearGradient></defs><path fill="url(#x)" d="M157.987 402.73c4.038-.575 9.294-.981 13.439-1.446q11.507-1.365 23.03-2.575c1.671 1.215 1.794 1.029 3.807 1.111-5.868.897-11.841 1.556-17.737 2.279-6.111.749-12.219 1.61-18.375 1.829-1.763-.044-3.557.519-4.164-1.198" transform="scale(1.83054 1.83114)"/><path fill="#1f2e33" d="M274.885 738.678c4.74-.467 9.563-1.009 14.316-1.223 1.112 3.144 4.396 2.113 7.623 2.194-4.004.844-16.296 2-20.305 1.38.8-.46.575-.29 1.27-.963-1.242-.108-1.813-.22-3.012-.461z"/><path fill="#070708" d="M263.905 670.55c5.329-.419 11.89-.875 17.043.431a21.63 21.63 0 0 1 13.456 9.963c3.082 5.28 3.844 12.736 2.259 18.606-1.942 7.195-7.92 11.678-14.059 15.226-6.317 2.428-17.55 3.525-24.359 4.21-2.376-15.44-3.253-31.455-6.015-47.39 3.784-.252 7.87-.703 11.675-1.045"/><path fill="#d9d9d9" d="M271.722 673.235c3.95-.156 5.967-.207 9.73 1.427a19.1 19.1 0 0 1 10.179 10.842c4.73 12.503-1.364 22.645-13.422 27.097-6.022.969-10.725 1.434-16.799 1.875a989 989 0 0 1-3.732-39.809c4.849-.677 9.17-1.044 14.044-1.432"/><path fill="#070708" d="M687.492 626.916c9.484-1.188 19.964-3.02 29.19-.547 5.816-3.084 14.077 2.335 11.16 8.96 4.24 7.333 6.199 18.827.37 25.886-8.566 10.374-22.744 10.226-35.047 11.41-1.204-5.317-1.971-14.641-2.548-20.454-.862-8.685-2.016-16.66-3.125-25.255"/><path fill="#c0bfbe" d="M716.682 626.369c5.816-3.084 14.077 2.335 11.16 8.96-3.567-4.732-5.947-6.298-11.16-8.96"/><path fill="#d9d9d9" d="M700.037 628.975c9.93-.958 19.442-.323 24.806 9.487 5.433 9.937 1.768 21.668-7.599 27.703-5.944 2.382-14.183 2.36-20.638 2.633l-4.706-38.32c2.568-.672 5.49-1.073 8.137-1.503"/><path fill="#d9d9d9" d="M363.827 707.135c-1.384-.917-4.952-3.58-6.259-3.677-.025 1.317.101 2.249.244 3.54l-.864.631c-2 .152-2.1.198-3.9-.567-1.564-4.877-5.011-42.274-4.975-47.897l.886-.649c1.137-.095 3.26.169 3.532 1.614.984 5.244-.035 13.872 1.953 18.782 4.563-4.298 9.2-7.702 15.854-7.367a16.95 16.95 0 0 1 11.952 5.788c10.582 12.31 1.142 33.408-18.423 29.802"/><path fill="#070708" d="M354.444 678.912c4.563-4.298 9.2-7.702 15.854-7.367a16.95 16.95 0 0 1 11.952 5.788c10.582 12.31 1.142 33.408-18.423 29.802.205-2.005.668-1.864 2.145-2.836 21.546 4.905 21.23-38.03-3.703-27.808-3.677 1.507-5.925 5.136-7.064 8.795l-.972-.326c-1.495-2.767-1.47-3.646.21-6.048"/><defs><linearGradient id="y" x1="199.369" x2="187.882" y1="366.907" y2="380.527" gradientUnits="userSpaceOnUse"><stop offset="0"/><stop offset="1" stop-color="#26272c"/></linearGradient></defs><path fill="url(#y)" d="M198.754 386.172c-.756-.501-2.705-1.955-3.419-2.008-.014.719.055 1.228.133 1.933l-.472.345c-1.093.083-1.147.108-2.13-.31-.855-2.663-2.738-23.086-2.718-26.157l.484-.354c.621-.052 1.781.092 1.929.881.538 2.864-.019 7.576 1.067 10.257-.918 1.312-.932 1.792-.115 3.303l.531.178c.212 3.257-.031 5.719 2.638 8.051.736.643 2.852 1.962 3.244 2.332-.807.531-1.06.454-1.172 1.549" transform="scale(1.83054 1.83114)"/><path fill="#d9d9d9" d="M646.865 678.848q-.871.263-1.76.465c-5.93 1.287-7.228-.367-12.161-3.5-1.953.246-.214 2.071-2.828 4.294-1.867-.18-1.164.216-2.314-.957-1.516-4.615-6.605-45.535-5.012-49.359l.86-.333c4.957 2.672 2.508 13.373 5.02 20.9 3.56-4.022 7.056-6.742 12.716-7.091a17.3 17.3 0 0 1 12.71 4.519c10.196 9.476 6.641 26.627-7.23 31.062"/><path fill="#212122" d="M646.865 678.848q-.871.263-1.76.465c-5.93 1.287-7.228-.367-12.161-3.5-1.953.246-.214 2.071-2.828 4.294-1.867-.18-1.164.216-2.314-.957-1.516-4.615-6.605-45.535-5.012-49.359l.86-.333c4.957 2.672 2.508 13.373 5.02 20.9l.159 1.488.652.443-.535-.15.364.615c1.036-1.04.866-1.234 2.029-1.397l-.883 2.615c-1.483 4.294-1.078 6.853-.659 11.37.915 3.204 2.146 5.421 3.962 8.228 3.573 2.024 5.603 2.148 9.641 2.516-2.457.515-1.979.062-3.634 1.533 1.337 1.659 5.07 1.298 7.1 1.229"/><path fill="#070708" d="M628.67 650.359c3.56-4.023 7.056-6.743 12.716-7.092a17.3 17.3 0 0 1 12.71 4.519c10.196 9.476 6.641 26.627-7.23 31.062-2.03.07-5.763.43-7.1-1.23 1.655-1.47 1.177-1.017 3.634-1.532 2.19-.467 4.23-1.064 6.112-2.336a14.22 14.22 0 0 0 5.922-9.182c.76-4.019-.015-8.352-2.363-11.73a13.42 13.42 0 0 0-8.948-5.647c-5.54-.83-8.766 1.05-12.784 4.166-1.163.163-.993.357-2.029 1.397l-.364-.615.535.15-.652-.443z"/><path fill="#c0bfbe" d="M629.797 665.341c3.04-.01 4.937-.183 4.939 3.855.002 1.796-.198 2.693-.977 4.374-1.816-2.807-3.047-5.024-3.962-8.229"/><path fill="#070708" d="M557.848 682.557c4.849-14.187 6.985-26.62 9.138-41.424.205-1.415 1.274-2.373 2.365-3.178l1.444-.297c.635.56 1.067.677.89 1.337-2.596 9.701-7.43 41.39-10.412 49.09-1.585.973-.738.803-2.65.414-4.978-3.574-17.206-37.016-18.93-43.87-2.003 12.102-5.386 32.622-8.485 45.193q-.526.44-1.05.882c-3.124.436-3.471-1.062-4.853-3.594a1141 1141 0 0 1-14.432-30.857c-1.042-2.298-4.599-9.432-3.854-11.413 1.893-.52 1.022-.617 2.717.196 1.87 2.206 2.317 4.82 3.602 7.516 5.512 11.56 10.542 20.665 13.596 33.197 3.732-3.796 7.002-31.944 8.413-37.633.754-3.046 1.248-5.91 4.966-6.424 2.499 1.952 15.796 35.603 17.535 40.865"/><path fill="#070708" d="M320.725 676.332c14.504-1.29 17.083 6.573 21.066 18.09-9.508-.065-22.587.803-31.707 3.295 4.653 8.092 9.977 13.375 19.999 9.52 2.676-1.624 5.171-3.667 8.179-3.343l.503.846c-1.257 2.93-4.809 4.959-7.703 5.924-15.816 5.27-30.262-9.143-22.422-24.834 2.58-5.168 6.84-7.805 12.085-9.498"/><path fill="#d9d9d9" d="M320.903 679.492c10.013-.778 12.583 3.435 15.451 12.12-3.769.121-7.747.44-11.528.678q-7.398.863-14.815 1.545c.946-7.927 2.574-12.129 10.892-14.343"/><path fill="#070708" d="M411.028 667.892c13.514.009 12.628 10.584 13.992 20.818.36 2.716 2.545 10.525 1.556 12.42-1.693.393-1.803.341-3.558.087-1.776-1.637-1.514-3.809-1.789-6.504-6.324 10.886-17.45 13.759-24.498 1.792-.423-.855-1.139-2.302-1.085-3.245.684-12.296 18.374-8.397 23.306-13.182 1.508-3.356-1.133-7.7-4.139-9.03-5.808-2.567-11.411 2.892-16.495 4.775-1.538-.85-2.121-2.555-2.984-4.207 5.776-1.95 9.662-3.027 15.694-3.724"/><path fill="#d9d9d9" d="m417.627 684.313 1.56-.122.78.851c2.582 10.137-5.28 16.523-15.295 13.807-13.088-9.36 6.594-13.142 12.955-14.536"/><path fill="#070708" d="M594.054 648.6c12.958-.74 18.148 4.516 21.234 16.624-5.973.802-25.79 1.899-29.84 3.873-.453 1.124-.52.886-.021 2.182 3.216 8.36 11.347 10.934 19.2 7.486 3.29-2.043 3.595-4.352 7.275-4.587l.701.729c.064.892-.013 1.498-.474 2.265-4.373 7.259-15.325 8.01-22.05 4.505a17.23 17.23 0 0 1-8.6-10.279c-3.166-10.19 2.41-19.745 12.575-22.797"/><path fill="#d9d9d9" d="M593.77 651.842c9.483-.949 13.037 2.672 16.616 10.906-3.467.678-9.647 1.013-13.34 1.322-3.828.467-10.682 2.492-13.444 1.375-1.684-4.235 6.407-11.715 10.168-13.603"/><path fill="#070708" d="M752.756 631.584c7.95-1.166 16.973 1.588 20.142 9.863.653 1.71 1.558 4.244.782 5.976-2.594 1.84-23.792 2.494-30.19 3.714 4.78 10.269 9.676 14.902 21.582 11.353 3.094-1.716 3.08-2.73 5.543-4.761 1.953.038 2.204.765 4.013 2.19-6.506 4.812-13.7 8.77-21.963 5.993-4.673-1.569-8.7-4.799-10.927-9.24a17.33 17.33 0 0 1-.794-13.477c2.098-5.967 6.334-9.04 11.812-11.611"/><path fill="#d9d9d9" d="M754.904 634.794c9.149-1.146 11.39 3.111 15.232 10.5l-12.21 1.283c-4.822.555-9.66.965-14.505 1.227 2.028-7.813 4.37-9.793 11.483-13.01"/><path fill="#212122" d="M852.832 622.681c2.436-2.44 4.948-4.246 8.353-2.803l.888 1.115c-.573 3.065-3.343 3.138-6.04 3.17 1.522 3.991 5.895 1.428 5.792 9.025-.197 14.772-13.273 9.886-19.416 13.096-.804 1.855-.092 2.87.972 4.529-1.593.09-2.592-.335-3.952-1.03l-.489-1.765c.873-2.17-3.37-6.163-4.611-9-5.246-11.995 7.701-20.745 18.503-16.337"/><path fill="#070708" d="M852.832 622.681c2.436-2.44 4.948-4.246 8.353-2.803l.888 1.115c-.573 3.065-3.343 3.138-6.04 3.17a473 473 0 0 0-4.18-.916z"/><path fill="#d9d9d9" d="M844.41 624.534c13.628-1.399 18.318 13.159 5.565 18.39-10.629 2.326-18.522-10.888-5.565-18.39"/><path fill="#070708" d="M843.381 650.813c4.067-.072 16.581-1.295 18.99.064 7.833 4.417 7.21 13.22-2.142 16.006-8.13 2.42-15.14 4.882-22.625-.383-4.394-3.089-.846-9.016.476-12.39.278-.745-1.39-4.87-1.494-6.379l.752-.472 1.602.76.489 1.765c1.36.694 2.36 1.119 3.952 1.029"/><path fill="#d9d9d9" d="M855.816 653.534c2.22-.145 4.267-.397 6.075 1.106a3.91 3.91 0 0 1 1.417 2.769c.527 8.205-12.768 8.813-18.131 8.846-10.3-1.397-7.819-6.061-3.169-12.113z"/><path fill="#212122" d="m467.474 650.377 1.027.374c1.356 1.402 1.32 7.375 1.42 9.52 2.294-.125 10.02-1.676 11.427-.467l-.236 2.616c-1.7 2.013-7.12 2.042-10.048 2.344.87 9.898.833 18.804 5.231 27.751 3.407-.963 7.218-3.285 10.33-2.27l.687 1.878c-2.94 2.588-8.975 6.155-12.726 3.998-8.435-4.851-7.449-22.044-7.77-30.666-3.1.42-5.838 1.443-8.253-.77-.399-3.64 4.752-3.8 7.403-4.211-1.529-4.873-3.337-7.237 1.508-10.097"/><path fill="#070708" d="M890.362 617.166a31 31 0 0 1 1.931-.103c6.553-.093 11.845 3.292 12.7 10.026.478 3.759 4.024 21.462 1.435 23.456l-.88-.16c-3.066-4.03-1.574-18.557-4.943-24.344-4.31-7.41-11.334-6.392-17.488-2.71l-.562.34c-7.363 7.768 2.544 25.554-2.442 30.297l-1.216-.178c-2.08-6.683-3.644-24.343-4.703-32.047-.19-1.384.184-1.439.907-2.144 1.962-.364 1.728-.63 3.33-.046.772 1.79.08 3.981-.284 6.036 4.561-4.871 5.855-6.31 12.215-8.423"/><path fill="#070708" d="M781.238 659.967q.594-.786 1.204-1.559c.29-.364 2.287-2.56 2.51-2.455 4.655 2.183 13.163 6.16 17.059.674 4.761-6.517-2.62-9.412-7.895-10.339-26.695-4.697-8.055-24.136 8.896-18.01 1.091.396 1.027 1.947 1.177 2.962l-1.32.558c-4.065-1.83-8.856-2.538-13.022-.653-3.306 1.494-7.25 4.826-5.28 8.707 6.587 5.015 26.221.575 22.183 14.33-3.156 10.749-17.531 8.936-25.512 5.785"/><path fill="#070708" d="M815.828 624.75c1.512.214 3.474.16 5.034.169.351 12.268 1.649 22.272 3.156 34.335-2.195-.218-2.849-.088-4.359-1.362-.562-2.461-3.86-30.587-3.831-33.142"/><path fill="#212122" d="M443.025 675.108c-2.412 8.455 2.774 19.751.65 23.673-1.711 1.11-.825.914-2.689.832l-.736-.835c-.754-6.534-4.274-28.866-1.94-33.856 1.479-.74.68-.555 2.526-.286 1.318 2.252-.209 3.24.813 6.13.265 1.867.218 2.927 1.376 4.342"/><path fill="#070708" d="M441.649 670.767c3.657-7.667 15.082-11.178 12.385-3.919-6.311 1.209-8.052 1.831-11.009 8.26-1.158-1.415-1.11-2.475-1.376-4.341"/><path fill="#070708" d="M814.264 610.464c2.805.03 4.011-.183 5.463 2.322.221 1.972.223 2.215-.564 4.03-2.29.72-3.23 1.404-5.067-.251-.633-2.11-.152-3.88.168-6.101"/><path fill="#314646" d="m427.876 365.043-.3 3.564c-.167 2.265-.6 2.616.472 4.198l2.257.544c-1.807.215-3.088-.155-3.87 1.632-.631-2.866-1.133-6.16-1.642-9.086 2.076-.121 1.443.176 3.083-.852"/><path fill="#c0bfbe" d="m802.87 631.798 1.32-.558c-.33 2.345-.51 5.332-1.615 7.311l-.17-1.44.038 1.44c-.222-3.061-.218-3.706.426-6.753"/></svg>